<?xml version="1.0" encoding="UTF-8"?>
<svg version="1.1" xmlns="http://www.w3.org/2000/svg" width="500" height="500">
<path d="M0 0 C7.25402154 4.32989653 14.54672836 8.58799701 21.86930847 12.80125427 C22.93794128 13.41637878 24.0065741 14.0315033 25.10758972 14.66526794 C28.33991939 16.52439363 31.57318077 18.38188732 34.80680847 20.23875427 C49.15319594 28.47697314 63.46607439 36.76171487 77.6681366 45.24705505 C83.36036421 48.63973516 89.07567881 51.97327162 94.86540222 55.19578552 C117.45813258 67.81973532 117.45813258 67.81973532 125.80680847 77.23875427 C126.4075116 77.90906677 127.00821472 78.57937927 127.62712097 79.27000427 C139.09953618 93.33668423 141.26196758 109.28879031 141.22673035 126.77879333 C141.23408451 128.51813293 141.24267462 130.25746767 141.25239563 131.99679565 C141.27448036 136.68920226 141.27754883 141.38143258 141.27564812 146.07388401 C141.27552779 150.0072682 141.28411721 153.94061588 141.29242563 157.87398982 C141.3116134 167.16340911 141.31456069 176.45273857 141.30778503 185.74217224 C141.30115009 195.28755705 141.32399736 204.83255488 141.36109877 214.37786126 C141.39190892 222.60675775 141.40314351 230.83553048 141.39926195 239.0644834 C141.39720585 243.96436987 141.40249581 248.8639551 141.42715454 253.76378632 C141.44960672 258.37696199 141.44739237 262.98951366 141.42722702 267.60269356 C141.42384918 269.28272308 141.4287644 270.96279615 141.4432106 272.64276695 C141.59478226 291.59723318 136.74557512 307.60513394 123.45207214 321.65843201 C115.29932704 329.61102666 105.64600103 335.31975856 95.74430847 340.80125427 C93.26139088 342.19405344 90.7821608 343.59336095 88.30290222 344.99266052 C87.67705231 345.3449472 87.05120239 345.69723389 86.40638733 346.06019592 C79.97955188 349.68593901 73.64173766 353.4547408 67.30680847 357.23875427 C58.19435391 362.67144716 49.03057373 367.99853843 39.80680847 373.23875427 C30.54305704 378.50221286 21.33740101 383.85069242 12.18180847 389.30125427 C3.02481931 394.75099571 -6.15627138 400.15418927 -15.38069153 405.48875427 C-16.98388245 406.41893372 -16.98388245 406.41893372 -18.61946106 407.36790466 C-37.1316682 418.04460926 -55.19431774 424.52282731 -76.77644348 418.89866638 C-88.74976272 415.14372011 -99.34317607 407.97769833 -109.95484924 401.44009399 C-115.98569794 397.73118579 -122.11269529 394.19583907 -128.25569153 390.67625427 C-130.41458617 389.43413713 -132.57344035 388.19194963 -134.73225403 386.94969177 C-136.88578022 385.71250432 -139.03942598 384.47552499 -141.19319153 383.23875427 C-155.53940788 375.00063367 -169.84031117 366.69754545 -184.05671692 358.23704529 C-192.0231082 353.50347631 -200.03320268 348.85447583 -208.06819153 344.23875427 C-211.21474016 342.4251186 -214.36028627 340.60977369 -217.50471497 338.79246521 C-219.14236902 337.84604036 -220.78083113 336.90100964 -222.42073059 335.95848083 C-230.1775396 331.47963751 -236.84033093 326.56842925 -243.19319153 320.23875427 C-244.0362384 319.43051208 -244.0362384 319.43051208 -244.89631653 318.60594177 C-257.4342618 305.47409383 -259.64828065 287.9358727 -259.59724426 270.68870544 C-259.60295638 268.93641731 -259.60992388 267.18413289 -259.61804199 265.43185425 C-259.63589758 260.70025734 -259.63481914 255.96884665 -259.62909961 251.23722625 C-259.62599608 247.27388196 -259.63211325 243.31057285 -259.63813835 239.34723359 C-259.65215764 229.98934775 -259.65064454 220.63155324 -259.63923645 211.27366638 C-259.62776349 201.65049144 -259.64182306 192.02759546 -259.66863292 182.40445727 C-259.69085576 174.11446883 -259.69741235 165.82456753 -259.69155651 157.53455144 C-259.68820076 152.59564073 -259.69050922 147.65690869 -259.70780754 142.7180233 C-259.72337948 138.06963846 -259.71920859 133.42166369 -259.7005024 128.77329445 C-259.69684439 127.07791848 -259.69984246 125.38251142 -259.71038818 123.68716431 C-259.82365657 103.95481069 -254.7005322 88.69138069 -241.16975403 74.06297302 C-234.70744954 67.68261003 -227.02818864 63.22029058 -219.19319153 58.73875427 C-217.04728041 57.49930561 -214.9014493 56.25971839 -212.75569153 55.02000427 C-211.11987122 54.07834412 -211.11987122 54.07834412 -209.45100403 53.11766052 C-204.35353746 50.17775474 -199.27391852 47.20746162 -194.19319153 44.23875427 C-192.19066999 43.07064386 -190.18806563 41.90267542 -188.18537903 40.73484802 C-184.21042654 38.41623353 -180.23655536 36.09578111 -176.26350403 33.77391052 C-165.98786584 27.77098361 -155.69679727 21.79689154 -145.38069153 15.86375427 C-136.87977614 10.97242297 -128.41527992 6.02458045 -119.98362732 1.0151825 C-117.16002026 -0.66209625 -114.33456362 -2.33625682 -111.50959778 -4.01124573 C-108.45056042 -5.825514 -105.39286619 -7.64173492 -102.34114075 -9.46827698 C-63.47253665 -32.72577839 -36.6442669 -21.87722639 0 0 Z " fill="#FBF5D7" transform="translate(309.1931915283203,51.76124572753906)"/>
<path d="M0 0 C7.25402154 4.32989653 14.54672836 8.58799701 21.86930847 12.80125427 C22.93794128 13.41637878 24.0065741 14.0315033 25.10758972 14.66526794 C28.33991939 16.52439363 31.57318077 18.38188732 34.80680847 20.23875427 C49.15319594 28.47697314 63.46607439 36.76171487 77.6681366 45.24705505 C83.36036421 48.63973516 89.07567881 51.97327162 94.86540222 55.19578552 C117.45813258 67.81973532 117.45813258 67.81973532 125.80680847 77.23875427 C126.4075116 77.90906677 127.00821472 78.57937927 127.62712097 79.27000427 C139.09953618 93.33668423 141.26196758 109.28879031 141.22673035 126.77879333 C141.23408451 128.51813293 141.24267462 130.25746767 141.25239563 131.99679565 C141.27448036 136.68920226 141.27754883 141.38143258 141.27564812 146.07388401 C141.27552779 150.0072682 141.28411721 153.94061588 141.29242563 157.87398982 C141.3116134 167.16340911 141.31456069 176.45273857 141.30778503 185.74217224 C141.30115009 195.28755705 141.32399736 204.83255488 141.36109877 214.37786126 C141.39190892 222.60675775 141.40314351 230.83553048 141.39926195 239.0644834 C141.39720585 243.96436987 141.40249581 248.8639551 141.42715454 253.76378632 C141.44960672 258.37696199 141.44739237 262.98951366 141.42722702 267.60269356 C141.42384918 269.28272308 141.4287644 270.96279615 141.4432106 272.64276695 C141.59478226 291.59723318 136.74557512 307.60513394 123.45207214 321.65843201 C115.29932704 329.61102666 105.64600103 335.31975856 95.74430847 340.80125427 C93.26139088 342.19405344 90.7821608 343.59336095 88.30290222 344.99266052 C87.67705231 345.3449472 87.05120239 345.69723389 86.40638733 346.06019592 C79.97955188 349.68593901 73.64173766 353.4547408 67.30680847 357.23875427 C58.19435391 362.67144716 49.03057373 367.99853843 39.80680847 373.23875427 C30.54305704 378.50221286 21.33740101 383.85069242 12.18180847 389.30125427 C3.02481931 394.75099571 -6.15627138 400.15418927 -15.38069153 405.48875427 C-16.98388245 406.41893372 -16.98388245 406.41893372 -18.61946106 407.36790466 C-37.1316682 418.04460926 -55.19431774 424.52282731 -76.77644348 418.89866638 C-88.74976272 415.14372011 -99.34317607 407.97769833 -109.95484924 401.44009399 C-115.98569794 397.73118579 -122.11269529 394.19583907 -128.25569153 390.67625427 C-130.41458617 389.43413713 -132.57344035 388.19194963 -134.73225403 386.94969177 C-136.88578022 385.71250432 -139.03942598 384.47552499 -141.19319153 383.23875427 C-155.53940788 375.00063367 -169.84031117 366.69754545 -184.05671692 358.23704529 C-192.0231082 353.50347631 -200.03320268 348.85447583 -208.06819153 344.23875427 C-211.21474016 342.4251186 -214.36028627 340.60977369 -217.50471497 338.79246521 C-219.14236902 337.84604036 -220.78083113 336.90100964 -222.42073059 335.95848083 C-230.1775396 331.47963751 -236.84033093 326.56842925 -243.19319153 320.23875427 C-244.0362384 319.43051208 -244.0362384 319.43051208 -244.89631653 318.60594177 C-257.4342618 305.47409383 -259.64828065 287.9358727 -259.59724426 270.68870544 C-259.60295638 268.93641731 -259.60992388 267.18413289 -259.61804199 265.43185425 C-259.63589758 260.70025734 -259.63481914 255.96884665 -259.62909961 251.23722625 C-259.62599608 247.27388196 -259.63211325 243.31057285 -259.63813835 239.34723359 C-259.65215764 229.98934775 -259.65064454 220.63155324 -259.63923645 211.27366638 C-259.62776349 201.65049144 -259.64182306 192.02759546 -259.66863292 182.40445727 C-259.69085576 174.11446883 -259.69741235 165.82456753 -259.69155651 157.53455144 C-259.68820076 152.59564073 -259.69050922 147.65690869 -259.70780754 142.7180233 C-259.72337948 138.06963846 -259.71920859 133.42166369 -259.7005024 128.77329445 C-259.69684439 127.07791848 -259.69984246 125.38251142 -259.71038818 123.68716431 C-259.82365657 103.95481069 -254.7005322 88.69138069 -241.16975403 74.06297302 C-234.70744954 67.68261003 -227.02818864 63.22029058 -219.19319153 58.73875427 C-217.04728041 57.49930561 -214.9014493 56.25971839 -212.75569153 55.02000427 C-211.11987122 54.07834412 -211.11987122 54.07834412 -209.45100403 53.11766052 C-204.35353746 50.17775474 -199.27391852 47.20746162 -194.19319153 44.23875427 C-192.19066999 43.07064386 -190.18806563 41.90267542 -188.18537903 40.73484802 C-184.21042654 38.41623353 -180.23655536 36.09578111 -176.26350403 33.77391052 C-165.98786584 27.77098361 -155.69679727 21.79689154 -145.38069153 15.86375427 C-136.87977614 10.97242297 -128.41527992 6.02458045 -119.98362732 1.0151825 C-117.16002026 -0.66209625 -114.33456362 -2.33625682 -111.50959778 -4.01124573 C-108.45056042 -5.825514 -105.39286619 -7.64173492 -102.34114075 -9.46827698 C-63.47253665 -32.72577839 -36.6442669 -21.87722639 0 0 Z M-79.19319153 11.23875427 C-80.07055969 11.70579773 -80.94792786 12.17284119 -81.85188293 12.65403748 C-84.83815035 14.27631815 -87.79865699 15.93880692 -90.75569153 17.61375427 C-91.84631897 18.22807312 -92.93694641 18.84239197 -94.06062317 19.47532654 C-103.46288042 24.788174 -112.79407898 30.21975545 -122.11116028 35.68016052 C-136.78806297 44.27944487 -151.54799141 52.73717919 -166.31767273 61.17585754 C-168.06174424 62.17256974 -169.80534901 63.17009466 -171.54890442 64.16770935 C-177.00283247 67.28643789 -182.46206248 70.39487698 -187.938797 73.47341919 C-190.4781034 74.90167867 -193.01438082 76.33526963 -195.5504303 77.76930237 C-197.32083689 78.76750657 -199.09556787 79.75802906 -200.87043762 80.74827576 C-210.03452369 85.9344847 -218.55867371 90.91035519 -224.06819153 100.11375427 C-224.61346497 100.95486755 -224.61346497 100.95486755 -225.16975403 101.81297302 C-255.05233702 149.77668413 -231.19319153 214.72781418 -231.19319153 271.23875427 C-117.67319153 271.23875427 -4.15319153 271.23875427 112.80680847 271.23875427 C125.7871626 201.3895606 125.7871626 201.3895606 100.80680847 93.23875427 C94.15434522 87.33131596 86.60521618 83.05156258 78.86930847 78.73875427 C77.62860442 78.03971744 76.38837901 77.33983049 75.14860535 76.6391449 C73.24115293 75.56127179 71.33341575 74.48394237 69.42414856 73.4092865 C63.19062126 69.90031358 56.9969343 66.32366441 50.80680847 62.73875427 C42.3735708 57.86345952 33.92464908 53.01648861 25.46250916 48.19160461 C16.17659477 42.89680329 6.91020749 37.57089475 -2.31819153 32.17625427 C-3.2768512 31.61696228 -4.23551086 31.05767029 -5.22322083 30.48143005 C-9.94638096 27.72503535 -14.66525542 24.96180572 -19.37513733 22.18276978 C-21.14131363 21.14243952 -22.909718 20.10601445 -24.67903137 19.07102966 C-26.9163723 17.76182599 -29.15002397 16.44628897 -31.37922668 15.12327576 C-40.97111085 9.53040885 -48.55203782 6.71206017 -59.69319153 6.80125427 C-60.57877747 6.7812738 -61.4643634 6.76129333 -62.37678528 6.7407074 C-68.88235015 6.74548388 -73.50237776 8.16632968 -79.19319153 11.23875427 Z " fill="#183B33" transform="translate(309.1931915283203,51.76124572753906)"/>
<path d="M0 0 C0.66 0 1.32 0 2 0 C2.1959375 1.22976562 2.391875 2.45953125 2.59375 3.7265625 C3.96845952 14.07527277 3.96845952 14.07527277 10.0625 21.9375 C11.36866426 22.63696224 12.6807773 23.32548983 14 24 C15.74609375 25.62890625 15.74609375 25.62890625 17 27 C15.02 27.66 13.04 28.32 11 29 C14.3 31.31 17.6 33.62 21 36 C20.67 37.32 20.34 38.64 20 40 C17.03 40.495 17.03 40.495 14 41 C18.455 42.98 18.455 42.98 23 45 C23 46.32 23 47.64 23 49 C22.0409375 49.433125 22.0409375 49.433125 21.0625 49.875 C18.84793921 50.82823451 18.84793921 50.82823451 18 53 C20.31 53.33 22.62 53.66 25 54 C25.33 54.99 25.66 55.98 26 57 C27.49985609 58.66710346 27.49985609 58.66710346 29 60 C28.05125 60.226875 27.1025 60.45375 26.125 60.6875 C22.80676612 61.69083714 22.80676612 61.69083714 21.625 64.625 C21.41875 65.40875 21.2125 66.1925 21 67 C21.70125 67.268125 22.4025 67.53625 23.125 67.8125 C26.1649824 69.0681449 29.0727774 70.50235123 32 72 C32 72.33 32 72.66 32 73 C28.535 73.99 28.535 73.99 25 75 C24.67 76.65 24.34 78.3 24 80 C29.44535609 83.38495108 34.67721029 83.67373505 41 84 C41 83.34 41 82.68 41 82 C39.35 82 37.7 82 36 82 C37.97420135 79.47740939 38.96745642 79.0070192 42.1875 78.3125 C43.115625 78.209375 44.04375 78.10625 45 78 C45 77.34 45 76.68 45 76 C43.35 76 41.7 76 40 76 C41.32 74.35 42.64 72.7 44 71 C42.68 70.34 41.36 69.68 40 69 C42.64 67.68 45.28 66.36 48 65 C47.01 64.34 46.02 63.68 45 63 C45.99 62.34 46.98 61.68 48 61 C48 60.34 48 59.68 48 59 C47.34 58.34 46.68 57.68 46 57 C46.77730469 56.62230469 47.55460938 56.24460938 48.35546875 55.85546875 C51.57533216 53.59633268 52.1365265 52.01463878 53.3125 48.3125 C53.63863281 47.31863281 53.96476563 46.32476562 54.30078125 45.30078125 C54.53152344 44.54152344 54.76226562 43.78226563 55 43 C57.74153238 45.74153238 57.5199043 47.93977238 58.0625 51.75 C59.06045832 57.03260869 59.06045832 57.03260869 62.1953125 61.22265625 C64.41427371 62.63820047 66.64194511 63.83827484 69 65 C69 65.33 69 65.66 69 66 C67.02 66 65.04 66 63 66 C64.80045946 67.98998151 66.31447791 69.17552256 68.6875 70.5 C69.450625 70.995 70.21375 71.49 71 72 C71 72.99 71 73.98 71 75 C68.525 75.495 68.525 75.495 66 76 C67.98 76.99 69.96 77.98 72 79 C72 80.32 72 81.64 72 83 C71.01 83 70.02 83 69 83 C69 83.99 69 84.98 69 86 C70.65 86 72.3 86 74 86 C74 86.66 74 87.32 74 88 C75.45833358 89.62514468 75.45833358 89.62514468 77 91 C74.525 91.99 74.525 91.99 72 93 C72.03955898 94.92309422 72.03955898 94.92309422 73 97 C75.98352894 98.78379415 75.98352894 98.78379415 79 100 C78.360625 100.2475 77.72125 100.495 77.0625 100.75 C74.84995673 101.82032523 74.84995673 101.82032523 74.125 104 C74.08375 104.66 74.0425 105.32 74 106 C76.76223278 108.76223278 79.20706617 108.57856291 83 109 C80.8614515 111.1385485 79.86724686 111.42655063 77 112 C80.6678852 113.96189209 83.87248551 115.39301257 88 116 C88 115.01 88 114.02 88 113 C87.01 112.67 86.02 112.34 85 112 C86.97746603 111.26919734 88.98072489 110.60578253 91 110 C91.66 110.33 92.32 110.66 93 111 C93 110.34 93 109.68 93 109 C90.03 108.505 90.03 108.505 87 108 C87.33 107.34 87.66 106.68 88 106 C90.0625 105.375 90.0625 105.375 92 105 C91.01 104.34 90.02 103.68 89 103 C90.98 102.01 92.96 101.02 95 100 C94.01 99.34 93.02 98.68 92 98 C93.32 97.67 94.64 97.34 96 97 C96 96.34 96 95.68 96 95 C94.68 94.67 93.36 94.34 92 94 C94 92.66666667 96 91.33333333 98 90 C98 89.01 98 88.02 98 87 C98.37578232 84.59499313 98.57357884 83.37080101 100.4375 81.75 C102.95577298 78.92953427 103.2199798 75.6600948 104 72 C106.55946773 74.55946773 106.57716959 76.34695335 107.25 79.875 C108.41600132 85.16674669 108.41600132 85.16674669 112.1875 88.75 C113.115625 89.1625 114.04375 89.575 115 90 C113.68 90.33 112.36 90.66 111 91 C111 91.66 111 92.32 111 93 C111.804375 93.268125 112.60875 93.53625 113.4375 93.8125 C114.283125 94.204375 115.12875 94.59625 116 95 C116.33 95.99 116.66 96.98 117 98 C115.68 98.33 114.36 98.66 113 99 C114.98 99.99 116.96 100.98 119 102 C119 102.66 119 103.32 119 104 C118.34 104.66 117.68 105.32 117 106 C117.99 106.66 118.98 107.32 120 108 C119.67 108.66 119.34 109.32 119 110 C119.99 110.33 120.98 110.66 122 111 C120.02 111.99 120.02 111.99 118 113 C118 113.66 118 114.32 118 115 C119.62626404 116.38232443 121.2925002 117.71937515 123 119 C121.68 119.33 120.36 119.66 119 120 C119.11306697 121.95894361 119.11306697 121.95894361 120 124 C122.49034386 125.29660434 122.49034386 125.29660434 125 126 C123.515 126.99 123.515 126.99 122 128 C126.455 129.485 126.455 129.485 131 131 C130.67 131.66 130.34 132.32 130 133 C129.01 133.33 128.02 133.66 127 134 C128.32 134.99 129.64 135.98 131 137 C127.7 137.33 124.4 137.66 121 138 C122.98 138.99 124.96 139.98 127 141 C127 141.33 127 141.66 127 142 C38.89 142 -49.22 142 -140 142 C-137.23776722 139.23776722 -134.79293383 139.42143709 -131 139 C-132.65 138.34 -134.3 137.68 -136 137 C-135.195625 136.38125 -134.39125 135.7625 -133.5625 135.125 C-130.96125481 133.25835959 -130.96125481 133.25835959 -130 131 C-131.98 131 -133.96 131 -136 131 C-130.89306527 127.08468337 -128.36484364 126.89734123 -122 127 C-122 126.34 -122 125.68 -122 125 C-128.435 125.495 -128.435 125.495 -135 126 C-132 123 -132 123 -130 122 C-130.99 121.01 -131.98 120.02 -133 119 C-131.20963542 118.0234375 -129.41927083 117.046875 -127.62890625 116.0703125 C-125.83381685 115.08589976 -125.83381685 115.08589976 -125 113 C-126.98 113.495 -126.98 113.495 -129 114 C-126.82283751 111.49626313 -125.28166277 110.52930045 -122 110 C-121.34 110 -120.68 110 -120 110 C-118.515 109.01 -118.515 109.01 -117 108 C-119.31 108 -121.62 108 -124 108 C-124 107.34 -124 106.68 -124 106 C-122.515 105.505 -122.515 105.505 -121 105 C-122.485 104.01 -122.485 104.01 -124 103 C-121.525 102.01 -121.525 102.01 -119 101 C-119 100.34 -119 99.68 -119 99 C-119.66 98.67 -120.32 98.34 -121 98 C-119.02 97.505 -119.02 97.505 -117 97 C-117 96.34 -117 95.68 -117 95 C-118.32 94.34 -119.64 93.68 -121 93 C-118.03 92.01 -118.03 92.01 -115 91 C-115.33 90.01 -115.66 89.02 -116 88 C-115.01 87.01 -115.01 87.01 -114 86 C-114 85.01 -114 84.02 -114 83 C-111.88336849 80.08050826 -109.56202527 77.52532003 -107 75 C-106.85304687 75.74765625 -106.70609375 76.4953125 -106.5546875 77.265625 C-105.25548015 83.93907957 -105.25548015 83.93907957 -100.8125 88.6875 C-99.884375 89.120625 -98.95625 89.55375 -98 90 C-98.99 90.66 -99.98 91.32 -101 92 C-100.175 92.433125 -99.35 92.86625 -98.5 93.3125 C-97.675 93.869375 -96.85 94.42625 -96 95 C-96 95.99 -96 96.98 -96 98 C-97.98 98.495 -97.98 98.495 -100 99 C-98.02 99.99 -96.04 100.98 -94 102 C-94 102.66 -94 103.32 -94 104 C-94.99 104.99 -95.98 105.98 -97 107 C-92.545 106.01 -92.545 106.01 -88 105 C-89.32 103.68 -90.64 102.36 -92 101 C-91.04287109 100.49339844 -91.04287109 100.49339844 -90.06640625 99.9765625 C-89.24011719 99.53054687 -88.41382813 99.08453125 -87.5625 98.625 C-86.32693359 97.96371094 -86.32693359 97.96371094 -85.06640625 97.2890625 C-82.86533422 96.16581441 -82.86533422 96.16581441 -82 94 C-83.65 94 -85.3 94 -87 94 C-84.07594919 91.5091419 -81.83806856 90.40400722 -78 90 C-77.01 90.495 -77.01 90.495 -76 91 C-76 90.01 -76 89.02 -76 88 C-78.31 87.67 -80.62 87.34 -83 87 C-82.67 86.34 -82.34 85.68 -82 85 C-78.9375 84.375 -78.9375 84.375 -76 84 C-76 83.34 -76 82.68 -76 82 C-77.65 82 -79.3 82 -81 82 C-78.3401439 78.55783328 -75.09711714 78.00495326 -71 77 C-72.98 76.67 -74.96 76.34 -77 76 C-75.68 74.68 -74.36 73.36 -73 72 C-74.98 71.01 -74.98 71.01 -77 70 C-74.59078295 67.59078295 -72.05665491 66.46187844 -69 65 C-70.485 64.01 -70.485 64.01 -72 63 C-71.01 62.34 -70.02 61.68 -69 61 C-69.495 59.02 -69.495 59.02 -70 57 C-69.21625 56.4225 -68.4325 55.845 -67.625 55.25 C-63.36793487 51.60108703 -62.74653487 48.47458908 -62 43 C-59.25846762 45.74153238 -59.4800957 47.93977238 -58.9375 51.75 C-57.93954168 57.03260869 -57.93954168 57.03260869 -54.8046875 61.22265625 C-52.58572629 62.63820047 -50.35805489 63.83827484 -48 65 C-48 65.33 -48 65.66 -48 66 C-49.98 66 -51.96 66 -54 66 C-52.19954054 67.98998151 -50.68552209 69.17552256 -48.3125 70.5 C-47.549375 70.995 -46.78625 71.49 -46 72 C-46 72.99 -46 73.98 -46 75 C-47.65 75.33 -49.3 75.66 -51 76 C-49.02 76.99 -47.04 77.98 -45 79 C-45 83 -45 83 -46.5 84.75 C-46.995 85.1625 -47.49 85.575 -48 86 C-46.35 86 -44.7 86 -43 86 C-43 86.66 -43 87.32 -43 88 C-41.329375 87.7834375 -41.329375 87.7834375 -39.625 87.5625 C-35.4919575 87.03205604 -31.35442451 86.68549129 -27.19921875 86.37890625 C-24.7172702 86.10428255 -24.7172702 86.10428255 -22 84 C-28.32127057 80.83936471 -37.53535781 83.01087933 -44 85 C-41.0094833 81.66442368 -38.06815373 79.84916079 -34 78 C-35.32 77.01 -36.64 76.02 -38 75 C-36.77974937 71.3392481 -35.873509 71.07660559 -32.5625 69.3125 C-31.75941406 68.87550781 -30.95632812 68.43851562 -30.12890625 67.98828125 C-28 67 -28 67 -26 67 C-26.33 66.01 -26.66 65.02 -27 64 C-28.65 64 -30.3 64 -32 64 C-29.64531545 61.27352315 -27.4591583 60.01243658 -24 59 C-20.91443028 59.3630082 -19.67494059 60.21670627 -17 62 C-17.495 60.02 -17.495 60.02 -18 58 C-16.35 57.01 -14.7 56.02 -13 55 C-13.67546875 55.08378906 -14.3509375 55.16757813 -15.046875 55.25390625 C-16.38492188 55.40666016 -16.38492188 55.40666016 -17.75 55.5625 C-19.07257813 55.71912109 -19.07257813 55.71912109 -20.421875 55.87890625 C-22.88432451 55.99456676 -24.66538064 55.73638695 -27 55 C-27 54.34 -27 53.68 -27 53 C-24.03 52.34 -21.06 51.68 -18 51 C-18.33 50.34 -18.66 49.68 -19 49 C-21.52733235 48.34444881 -21.52733235 48.34444881 -24 48 C-21.68118495 45.32098068 -19.68185532 44.33795597 -16.3125 43.3125 C-15.50425781 43.06113281 -14.69601563 42.80976562 -13.86328125 42.55078125 C-13.24839844 42.36902344 -12.63351563 42.18726563 -12 42 C-13.98 41.34 -15.96 40.68 -18 40 C-16.625 38.5 -16.625 38.5 -15 37 C-14.34 37 -13.68 37 -13 37 C-13 36.34 -13 35.68 -13 35 C-15.31 34.34 -17.62 33.68 -20 33 C-19 31 -19 31 -16.49609375 30.1484375 C-15.48675781 29.89320312 -14.47742188 29.63796875 -13.4375 29.375 C-12.42558594 29.11460938 -11.41367188 28.85421875 -10.37109375 28.5859375 C-9.58863281 28.39257812 -8.80617187 28.19921875 -8 28 C-9.98 25.525 -9.98 25.525 -12 23 C-10.35 21.35 -8.7 19.7 -7 18 C-8.32 18 -9.64 18 -11 18 C-11 17.34 -11 16.68 -11 16 C-10.278125 15.62875 -9.55625 15.2575 -8.8125 14.875 C-4.20049094 11.80032729 -1.62660112 7.31360414 -0.1875 2 C-0.125625 1.34 -0.06375 0.68 0 0 Z " fill="#173A33" transform="translate(253,75)"/>
<path d="M0 0 C7.25402154 4.32989653 14.54672836 8.58799701 21.86930847 12.80125427 C22.93794128 13.41637878 24.0065741 14.0315033 25.10758972 14.66526794 C28.33991939 16.52439363 31.57318077 18.38188732 34.80680847 20.23875427 C49.15319594 28.47697314 63.46607439 36.76171487 77.6681366 45.24705505 C83.36036421 48.63973516 89.07567881 51.97327162 94.86540222 55.19578552 C117.45813258 67.81973532 117.45813258 67.81973532 125.80680847 77.23875427 C126.4075116 77.90906677 127.00821472 78.57937927 127.62712097 79.27000427 C139.09953618 93.33668423 141.26196758 109.28879031 141.22673035 126.77879333 C141.23408451 128.51813293 141.24267462 130.25746767 141.25239563 131.99679565 C141.27448036 136.68920226 141.27754883 141.38143258 141.27564812 146.07388401 C141.27552779 150.0072682 141.28411721 153.94061588 141.29242563 157.87398982 C141.3116134 167.16340911 141.31456069 176.45273857 141.30778503 185.74217224 C141.30115009 195.28755705 141.32399736 204.83255488 141.36109877 214.37786126 C141.39190892 222.60675775 141.40314351 230.83553048 141.39926195 239.0644834 C141.39720585 243.96436987 141.40249581 248.8639551 141.42715454 253.76378632 C141.44960672 258.37696199 141.44739237 262.98951366 141.42722702 267.60269356 C141.42384918 269.28272308 141.4287644 270.96279615 141.4432106 272.64276695 C141.59478226 291.59723318 136.74557512 307.60513394 123.45207214 321.65843201 C115.29932704 329.61102666 105.64600103 335.31975856 95.74430847 340.80125427 C93.26139088 342.19405344 90.7821608 343.59336095 88.30290222 344.99266052 C87.67705231 345.3449472 87.05120239 345.69723389 86.40638733 346.06019592 C79.97955188 349.68593901 73.64173766 353.4547408 67.30680847 357.23875427 C58.19435391 362.67144716 49.03057373 367.99853843 39.80680847 373.23875427 C30.54305704 378.50221286 21.33740101 383.85069242 12.18180847 389.30125427 C3.02481931 394.75099571 -6.15627138 400.15418927 -15.38069153 405.48875427 C-16.98388245 406.41893372 -16.98388245 406.41893372 -18.61946106 407.36790466 C-37.1316682 418.04460926 -55.19431774 424.52282731 -76.77644348 418.89866638 C-88.74976272 415.14372011 -99.34317607 407.97769833 -109.95484924 401.44009399 C-115.98569794 397.73118579 -122.11269529 394.19583907 -128.25569153 390.67625427 C-130.41458617 389.43413713 -132.57344035 388.19194963 -134.73225403 386.94969177 C-136.88578022 385.71250432 -139.03942598 384.47552499 -141.19319153 383.23875427 C-155.53940788 375.00063367 -169.84031117 366.69754545 -184.05671692 358.23704529 C-192.0231082 353.50347631 -200.03320268 348.85447583 -208.06819153 344.23875427 C-211.21474016 342.4251186 -214.36028627 340.60977369 -217.50471497 338.79246521 C-219.14236902 337.84604036 -220.78083113 336.90100964 -222.42073059 335.95848083 C-230.1775396 331.47963751 -236.84033093 326.56842925 -243.19319153 320.23875427 C-244.0362384 319.43051208 -244.0362384 319.43051208 -244.89631653 318.60594177 C-257.4342618 305.47409383 -259.64828065 287.9358727 -259.59724426 270.68870544 C-259.60295638 268.93641731 -259.60992388 267.18413289 -259.61804199 265.43185425 C-259.63589758 260.70025734 -259.63481914 255.96884665 -259.62909961 251.23722625 C-259.62599608 247.27388196 -259.63211325 243.31057285 -259.63813835 239.34723359 C-259.65215764 229.98934775 -259.65064454 220.63155324 -259.63923645 211.27366638 C-259.62776349 201.65049144 -259.64182306 192.02759546 -259.66863292 182.40445727 C-259.69085576 174.11446883 -259.69741235 165.82456753 -259.69155651 157.53455144 C-259.68820076 152.59564073 -259.69050922 147.65690869 -259.70780754 142.7180233 C-259.72337948 138.06963846 -259.71920859 133.42166369 -259.7005024 128.77329445 C-259.69684439 127.07791848 -259.69984246 125.38251142 -259.71038818 123.68716431 C-259.82365657 103.95481069 -254.7005322 88.69138069 -241.16975403 74.06297302 C-234.70744954 67.68261003 -227.02818864 63.22029058 -219.19319153 58.73875427 C-217.04728041 57.49930561 -214.9014493 56.25971839 -212.75569153 55.02000427 C-211.11987122 54.07834412 -211.11987122 54.07834412 -209.45100403 53.11766052 C-204.35353746 50.17775474 -199.27391852 47.20746162 -194.19319153 44.23875427 C-192.19066999 43.07064386 -190.18806563 41.90267542 -188.18537903 40.73484802 C-184.21042654 38.41623353 -180.23655536 36.09578111 -176.26350403 33.77391052 C-165.98786584 27.77098361 -155.69679727 21.79689154 -145.38069153 15.86375427 C-136.87977614 10.97242297 -128.41527992 6.02458045 -119.98362732 1.0151825 C-117.16002026 -0.66209625 -114.33456362 -2.33625682 -111.50959778 -4.01124573 C-108.45056042 -5.825514 -105.39286619 -7.64173492 -102.34114075 -9.46827698 C-63.47253665 -32.72577839 -36.6442669 -21.87722639 0 0 Z M-92.75569153 0.48875427 C-94.52262161 1.56742231 -96.29284926 2.64052931 -98.06340027 3.71324158 C-99.28096513 4.45108054 -100.4976163 5.19042928 -101.71336365 5.93125916 C-107.55998617 9.48713393 -113.49381904 12.88048114 -119.44859314 16.25111389 C-129.30221158 21.82937851 -139.08843675 27.50867897 -148.81819153 33.30125427 C-157.59705884 38.52760364 -166.40195458 43.70265865 -175.25569153 48.80125427 C-176.3157843 49.41186707 -177.37587708 50.02247986 -178.46809387 50.65159607 C-183.43215072 53.50775794 -188.39976686 56.35759847 -193.37136841 59.2006073 C-225.48514432 75.76967193 -225.48514432 75.76967193 -244.7653656 104.88595581 C-246.81596931 112.62554732 -246.61351156 120.362912 -246.58137512 128.30149841 C-246.58544751 130.00116308 -246.59079311 131.7008251 -246.5973053 133.40048218 C-246.61090439 137.98719968 -246.60571133 142.57371324 -246.59616804 147.16043401 C-246.5885341 151.97637658 -246.59562726 156.79230254 -246.60032654 161.60824585 C-246.60577273 169.69222628 -246.59862182 177.77612427 -246.58430481 185.86009216 C-246.56797497 195.18792925 -246.57327383 204.51556963 -246.58978403 213.84340197 C-246.60342474 221.87345463 -246.6053061 229.9034483 -246.59746802 237.93350881 C-246.59280641 242.72023232 -246.59212497 247.50686354 -246.60207748 252.29358101 C-246.61078279 256.79416492 -246.60466052 261.29449663 -246.58739471 265.79505348 C-246.58344907 267.44050428 -246.58453072 269.08597653 -246.59118271 270.73141861 C-246.62263397 279.30574788 -246.42979626 287.15143994 -243.19319153 295.23875427 C-242.8399884 296.16687927 -242.48678528 297.09500427 -242.12287903 298.05125427 C-234.58923964 313.67658042 -220.85760156 321.49742069 -206.25569153 329.67625427 C-203.75760668 331.08681332 -201.26220107 332.50206621 -198.76741028 333.91844177 C-198.13578979 334.27670547 -197.50416931 334.63496918 -196.85340881 335.00408936 C-190.3755713 338.68716451 -183.968945 342.48578028 -177.56819153 346.30125427 C-167.67459025 352.19328055 -157.7337484 357.99499539 -147.751297 363.73509216 C-140.54962716 367.87657007 -133.36538824 372.04645913 -126.19319153 376.23875427 C-123.22899155 377.96862997 -120.26441262 379.69785391 -117.29963684 381.42674255 C-115.14747081 382.68211636 -112.99581225 383.93836039 -110.84455872 385.19529724 C-88.38101833 399.77250025 -88.38101833 399.77250025 -63.19319153 407.23875427 C-62.31276184 407.31996521 -61.43233215 407.40117615 -60.52522278 407.48484802 C-39.56076663 408.48315546 -20.04998489 392.83894039 -2.88069153 382.61766052 C2.91402415 379.16904434 8.73149587 375.76038382 14.55680847 372.36375427 C15.55123962 371.78375671 16.54567078 371.20375916 17.57023621 370.60618591 C23.82740539 366.96164698 30.09782054 363.34071196 36.37467957 359.73020935 C47.56677551 353.29201721 58.7083911 346.77628428 69.80168152 340.16917419 C75.35580445 336.86391025 80.92193962 333.58452586 86.52555847 330.36375427 C87.60369812 329.74250671 88.68183777 329.12125916 89.79264832 328.48118591 C91.81050894 327.32097098 93.83143185 326.16605711 95.85612488 325.01780701 C108.63381626 317.66078382 119.25388569 309.27319609 124.80680847 295.23875427 C125.05544175 294.62006124 125.30407503 294.0013682 125.56024265 293.36392689 C128.4604846 285.13452444 128.23713101 276.93614703 128.21086121 268.33714294 C128.21657237 266.64249219 128.22353951 264.94784527 128.23165894 263.25320435 C128.24952522 258.67450128 128.24843403 254.09599056 128.24271655 249.51726317 C128.23961452 245.68311141 128.24572856 241.84899605 128.2517553 238.01484948 C128.26577815 228.96241879 128.26425856 219.91008251 128.25285339 210.85765076 C128.24138063 201.54632569 128.25543882 192.23528895 128.28224987 182.92400187 C128.30446795 174.90495926 128.31103034 166.88600673 128.30517346 158.86693555 C128.3018165 154.08844776 128.30413423 149.31014462 128.32142448 144.53168297 C128.33698874 140.03433241 128.33283394 135.53740587 128.31411934 131.04007149 C128.3104592 129.3991033 128.31346582 127.75810303 128.32400513 126.11716461 C128.42225262 109.54172653 124.91737284 95.86575956 113.41618347 83.42234802 C108.09020737 78.20717671 101.74781537 74.74354389 95.30680847 71.11375427 C94.01010103 70.37039319 92.71413184 69.62574296 91.41886902 68.87986755 C88.79808175 67.37251132 86.17387288 65.87141506 83.54655457 64.37547302 C78.21102313 61.33351279 72.9174565 58.22019511 67.61930847 55.11375427 C60.51215164 50.96381459 53.38884207 46.84278162 46.25480652 42.73924255 C36.23096326 36.97337479 26.24566963 31.15003279 16.30680847 25.23875427 C4.14028074 18.00424528 -8.09024236 10.89229261 -20.37580872 3.86180115 C-22.90177997 2.40663157 -25.41330237 0.9303226 -27.91975403 -0.55812073 C-50.91814861 -14.11388983 -70.16964893 -13.5986269 -92.75569153 0.48875427 Z " fill="#1A3B32" transform="translate(309.1931915283203,51.76124572753906)"/>
<path d="M0 0 C5.79471568 3.44861619 11.61218739 6.8572767 17.4375 10.25390625 C18.43193115 10.83390381 19.4263623 11.41390137 20.45092773 12.01147461 C26.70793991 15.6559221 32.97821231 19.27674127 39.25488281 22.88720703 C50.40321222 29.30009648 61.50068688 35.79018969 72.54394531 42.38256836 C78.26578958 45.79046819 84.0099016 49.14544597 89.81640625 52.40625 C90.99095667 53.06953529 92.16543668 53.7329453 93.33984375 54.39648438 C95.5330167 55.63124326 97.7318357 56.85605492 99.9375 58.06835938 C114.23024158 66.13446901 125.21318658 77.08934876 129.74542522 93.12106514 C130.71246595 97.07860628 130.9415559 100.79461138 130.94819641 104.87936401 C130.95202196 105.58968186 130.95584751 106.29999972 130.95978898 107.03184235 C130.97002556 109.38833045 130.96614481 111.74457061 130.9621582 114.10107422 C130.96650987 115.80029524 130.97169453 117.4995143 130.97764587 119.19873047 C130.99099842 123.79797729 130.9916187 128.39714175 130.98908257 132.99640417 C130.98801029 136.84315781 130.99290284 140.68989496 130.997688 144.53664505 C131.00877031 153.61575126 131.00922782 162.69481609 131.00317383 171.77392578 C130.99713489 181.1238453 131.00944596 190.4736143 131.0307439 199.82350814 C131.04838708 207.86623175 131.05435696 215.90890755 131.05110615 223.95164979 C131.04929744 228.74848725 131.05188831 233.54521735 131.06582069 238.3420372 C131.07843864 242.85487898 131.07641756 247.36748694 131.06340981 251.88032532 C131.06105307 253.53061631 131.06374614 255.18092396 131.07203293 256.83119583 C131.11204072 265.42216117 130.92735642 273.27442244 127.6875 281.37890625 C127.34589844 282.29542969 127.00429688 283.21195312 126.65234375 284.15625 C120.21033799 297.70160813 109.91444219 304.71126046 97.32421875 311.875 C94.54694359 313.45907546 91.7879457 315.07180077 89.03125 316.69140625 C83.9548025 319.67127925 78.86676755 322.63068549 73.77539062 325.58496094 C70.75908131 327.33732027 67.7460592 329.09517413 64.734375 330.85546875 C54.46755708 336.85623951 44.18356656 342.8251251 33.875 348.75390625 C24.93878533 353.89553717 16.04892028 359.10948716 7.1875 364.37890625 C2.68941128 367.04880912 -1.81049501 369.71561216 -6.3125 372.37890625 C-7.18053253 372.89248688 -7.18053253 372.89248688 -8.06610107 373.41644287 C-12.11984743 375.81283638 -16.18306541 378.19246233 -20.25 380.56640625 C-21.28511719 381.17806641 -22.32023438 381.78972656 -23.38671875 382.41992188 C-38.00169085 390.91061486 -51.3206997 395.83789189 -68.2890625 392.296875 C-84.2539183 387.44966426 -99.04337466 376.72456355 -113.3125 368.37890625 C-115.36691893 367.18183063 -117.421598 365.98520132 -119.4765625 364.7890625 C-124.43519703 361.90137758 -129.39051512 359.00805831 -134.34472656 356.11279297 C-139.33240952 353.19879788 -144.32255772 350.28903021 -149.3125 347.37890625 C-155.2902679 343.89268444 -161.26755989 340.40566403 -167.2421875 336.9140625 C-169.22390499 335.7564191 -171.20567585 334.59886706 -173.1875 333.44140625 C-174.16291748 332.87156006 -175.13833496 332.30171387 -176.14331055 331.71459961 C-181.49015353 328.59498846 -186.84624628 325.49217212 -192.21484375 322.41015625 C-192.79312927 322.07785507 -193.37141479 321.74555389 -193.96722412 321.40318298 C-196.75025752 319.80407217 -199.53464026 318.20742889 -202.32177734 316.61547852 C-220.07874974 306.42207906 -235.73150523 296.7631157 -242.3125 276.37890625 C-243.31062771 272.29582608 -243.44545167 268.45731992 -243.45967102 264.25939941 C-243.46334771 263.55376153 -243.4670244 262.84812366 -243.4708125 262.12110281 C-243.4818038 259.76236836 -243.48568546 257.40367804 -243.48950195 255.04492188 C-243.49577021 253.35101178 -243.50241733 251.65710304 -243.50941467 249.9631958 C-243.53042017 244.40385896 -243.54081603 238.84452196 -243.55078125 233.28515625 C-243.55483058 231.36712124 -243.55894755 229.44908636 -243.56313133 227.53105164 C-243.58217787 218.51553567 -243.59640819 209.50002785 -243.6047433 200.48449564 C-243.61450414 190.09986635 -243.6407958 179.71545086 -243.68124419 169.33089685 C-243.71147898 161.29074254 -243.72621927 153.25064924 -243.72952431 145.21043921 C-243.73186702 140.41508327 -243.74072507 135.61995587 -243.76598549 130.82466125 C-243.78939945 126.30689372 -243.79344635 121.78950303 -243.78322411 117.27169037 C-243.78273181 115.62265005 -243.78896098 113.97359034 -243.80278015 112.32460785 C-243.93469117 95.63688523 -240.44225591 81.83609144 -228.6953125 69.43359375 C-224.3719006 65.20108079 -219.69108542 62.26588014 -214.4375 59.31640625 C-213.48770264 58.76895752 -212.53790527 58.22150879 -211.55932617 57.6574707 C-209.52787546 56.48818726 -207.49319618 55.32449767 -205.45556641 54.16601562 C-201.24497942 51.77192702 -197.05023172 49.35076317 -192.85498047 46.92993164 C-190.68431941 45.6775767 -188.51275478 44.42678671 -186.34033203 43.17749023 C-178.4599422 38.64055943 -170.62725791 34.02783569 -162.8125 29.37890625 C-149.71516632 21.59028305 -136.52574666 13.96873483 -123.3125 6.37890625 C-119.99361472 4.47100008 -116.67525407 2.56219638 -113.35791016 0.65161133 C-111.17748961 -0.60401239 -108.99618703 -1.85810579 -106.81396484 -3.1105957 C-101.56420085 -6.1317466 -96.34561338 -9.19140767 -91.17578125 -12.34765625 C-90.19706055 -12.9411084 -89.21833984 -13.53456055 -88.20996094 -14.14599609 C-86.39237009 -15.25201546 -84.58115729 -16.36862623 -82.77832031 -17.49853516 C-52.97425829 -35.58760453 -25.75269115 -15.33117631 0 0 Z M-87.375 -6.05859375 C-89.0312439 -5.11487915 -89.0312439 -5.11487915 -90.72094727 -4.15209961 C-98.11150203 0.07084367 -105.4603439 4.36465225 -112.78125 8.70703125 C-118.41117855 12.03892533 -124.0816917 15.30038298 -129.75 18.56640625 C-130.85722412 19.20441162 -131.96444824 19.84241699 -133.10522461 20.49975586 C-135.37587068 21.80780102 -137.64662358 23.11566073 -139.91748047 24.42333984 C-146.4644012 28.19443398 -153.00781065 31.97161701 -159.55151367 35.74829102 C-165.01671293 38.90209704 -170.48341028 42.05324954 -175.953125 45.19921875 C-182.41220808 48.91552075 -188.86471856 52.64303288 -195.3125 56.37890625 C-196.36179688 56.98605469 -197.41109375 57.59320313 -198.4921875 58.21875 C-201.51946832 59.97396893 -204.54174682 61.73748196 -207.5625 63.50390625 C-208.46129883 64.0242041 -209.36009766 64.54450195 -210.28613281 65.08056641 C-223.11156778 72.61667965 -231.29552923 82.7484498 -235.86196327 97.10656929 C-236.46678418 100.15705732 -236.45224391 103.07108047 -236.46640015 106.18161011 C-236.4707824 106.86527023 -236.47516465 107.54893036 -236.4796797 108.25330746 C-236.49303159 110.54371173 -236.49923856 112.83407755 -236.50537109 115.12451172 C-236.51327528 116.76739168 -236.52154443 118.41026993 -236.53015137 120.05314636 C-236.55634787 125.45077869 -236.5716826 130.84841865 -236.5859375 136.24609375 C-236.59129928 138.10807423 -236.59667679 139.97005467 -236.60206985 141.83203506 C-236.6237004 149.58356747 -236.64243282 157.33509782 -236.65369225 165.08665276 C-236.66990181 176.17143482 -236.70300465 187.25586472 -236.76009309 198.34051406 C-236.79891299 206.14626904 -236.81833949 213.95193033 -236.82361281 221.75777924 C-236.8272515 226.41295833 -236.8391129 231.0677616 -236.87171555 235.72283554 C-236.90200678 240.11097195 -236.90803387 244.49850935 -236.89633179 248.88672829 C-236.89611276 250.48698102 -236.90427431 252.08726325 -236.92198563 253.68741798 C-237.08964878 269.72380944 -233.1198478 283.25775907 -221.91796875 295.1640625 C-216.76956262 300.23788809 -210.73512007 303.50101988 -204.4375 306.94140625 C-203.19480872 307.63376752 -201.95296128 308.32764529 -200.71191406 309.02294922 C-198.16324163 310.449852 -195.61155183 311.87111365 -193.05761719 313.28857422 C-187.35511248 316.4617096 -181.70983112 319.73390278 -176.0625 323.00390625 C-174.45761719 323.93033936 -174.45761719 323.93033936 -172.8203125 324.87548828 C-165.67925694 328.99957786 -158.55586582 333.15331227 -151.4375 337.31640625 C-141.6307168 343.05068863 -131.77838156 348.70304667 -121.90844727 354.32763672 C-116.00076263 357.6951227 -110.09956074 361.07297223 -104.21484375 364.48046875 C-103.6364978 364.81516678 -103.05815186 365.14986481 -102.46228027 365.4947052 C-99.73196633 367.07518137 -97.00293491 368.65780428 -94.27587891 370.24389648 C-89.02625469 373.2852502 -83.75317155 376.28404786 -78.4453125 379.22265625 C-77.41937988 379.79306641 -76.39344727 380.36347656 -75.33642578 380.95117188 C-70.45795646 383.25452151 -65.6509856 383.97279739 -60.3125 384.37890625 C-59.49394531 384.46011719 -58.67539063 384.54132813 -57.83203125 384.625 C-45.07460225 385.3117784 -33.68500682 379.44986655 -23.0625 373.06640625 C-21.84742948 372.35204256 -20.63142426 371.63926664 -19.41455078 370.92797852 C-16.92269951 369.46903959 -14.43561582 368.00245968 -11.95214844 366.52929688 C-6.39506492 363.23787578 -0.78767117 360.03373442 4.8125 356.81640625 C6.96131168 355.57616891 9.10974948 354.33528355 11.2578125 353.09375 C17.73260026 349.35238966 24.20989573 345.61538747 30.6875 341.87890625 C31.75871094 341.26080078 32.82992188 340.64269531 33.93359375 340.00585938 C39.37396075 336.86668251 44.81512955 333.72890996 50.2578125 330.59375 C61.08114167 324.357627 71.89571351 318.10699023 82.6875 311.81640625 C83.6480127 311.25687256 84.60852539 310.69733887 85.59814453 310.12084961 C88.29756879 308.54519657 90.99367443 306.96411037 93.6875 305.37890625 C94.59798096 304.84370361 95.50846191 304.30850098 96.4465332 303.75708008 C97.32656006 303.23525146 98.20658691 302.71342285 99.11328125 302.17578125 C99.89356689 301.71397461 100.67385254 301.25216797 101.4777832 300.77636719 C112.5405737 293.78007807 119.44815213 282.97515887 122.6875 270.37890625 C123.25813694 264.72816241 123.24612954 259.11438645 123.22094727 253.43969727 C123.22801745 251.7531255 123.23676705 250.06656008 123.24705505 248.38000488 C123.26943545 243.8282376 123.26663608 239.27681988 123.25773358 234.72501874 C123.2526004 230.91308069 123.25993507 227.101207 123.26720566 223.28927559 C123.28416858 214.29101836 123.28067522 205.29293086 123.26391602 196.29467773 C123.24699609 187.03720985 123.26283566 177.78021357 123.2951389 168.52279717 C123.32189839 160.54959474 123.32909373 152.57653854 123.32062382 144.60329574 C123.31571339 139.85220519 123.31780766 135.10139824 123.33841133 130.3503437 C123.35686889 125.8807995 123.35068784 121.4119297 123.32621193 116.94242096 C123.32123591 115.31070981 123.32460953 113.67894636 123.33736038 112.04727745 C123.4402414 97.74049572 120.09090227 85.00874422 109.82104492 74.4621582 C103.93828466 69.09464612 97.69667136 65.17052555 90.75 61.31640625 C89.02001117 60.33768747 87.29003188 59.35895134 85.56063843 58.37918091 C83.77939447 57.37174124 81.99561613 56.36890984 80.21142578 55.36669922 C74.67611677 52.25169804 69.18451354 49.06081613 63.6875 45.87890625 C61.5210314 44.628563 59.35436421 43.37856378 57.1875 42.12890625 C18.1875 19.62890625 18.1875 19.62890625 14.93457031 17.75195312 C12.77797294 16.50793696 10.62107406 15.26444332 8.46386719 14.02148438 C2.89050836 10.80926124 -2.67664006 7.58683201 -8.234375 4.34765625 C-36.23363126 -11.94783939 -56.79946956 -23.76618369 -87.375 -6.05859375 Z " fill="#F0AC41" transform="translate(306.3125,65.62109375)"/>
<path d="M0 0 C1.30078125 2.4140625 1.30078125 2.4140625 2.3125 5.625 C6.86808188 18.58435716 13.9664475 29.92338638 21.75195312 41.17578125 C22.99089266 42.98668818 24.19416458 44.81706291 25.390625 46.65625 C32.13625571 56.95212194 32.13625571 56.95212194 43 62 C43 63.65 43 65.3 43 67 C42.34 67 41.68 67 41 67 C41 66.01 41 65.02 41 64 C40.278125 63.731875 39.55625 63.46375 38.8125 63.1875 C36.02409874 62.01017502 33.55904276 60.60854116 31 59 C30.67 61.31 30.34 63.62 30 66 C15.80374258 70.14057508 15.80374258 70.14057508 10 70 C5.99390699 60.80835512 2.30682876 51.16651159 3 41 C3.66 41 4.32 41 5 41 C7.31 47.6 9.62 54.2 12 61 C11.32550051 57.62750253 10.61954135 54.53867742 9.625 51.27734375 C9.36203125 50.40916016 9.0990625 49.54097656 8.828125 48.64648438 C8.41820312 47.30553711 8.41820312 47.30553711 8 45.9375 C7.45750517 44.15519978 6.91580858 42.37265636 6.375 40.58984375 C6.13523437 39.80472412 5.89546875 39.01960449 5.6484375 38.21069336 C5.04423428 36.15080626 4.50426565 34.08633967 4 32 C4.495 35.465 4.495 35.465 5 39 C3.515 39.495 3.515 39.495 2 40 C1.86722656 39.07316406 1.73445313 38.14632812 1.59765625 37.19140625 C1.33275391 35.39509766 1.33275391 35.39509766 1.0625 33.5625 C0.80146484 31.77005859 0.80146484 31.77005859 0.53515625 29.94140625 C0.31014787 27.12044324 0.31014787 27.12044324 -1 26 C-0.97679687 26.63421875 -0.95359375 27.2684375 -0.9296875 27.921875 C-0.65900161 41.92020266 -0.82442271 59.14864289 -7 72 C-11.59350876 75.26845816 -16.50387941 75.4314358 -22 76 C-22.33 76.33 -22.66 76.66 -23 77 C-26.27132834 76.99087496 -29.53192629 76.86664558 -32.80078125 76.7421875 C-36.31677928 77.025528 -37.52275672 77.56243797 -40 80 C-40.66 80.99 -41.32 81.98 -42 83 C-42.25 80.75 -42.25 80.75 -42 78 C-40 75.6875 -40 75.6875 -38 74 C-38.54681427 73.88671356 -39.09362854 73.77342712 -39.65701294 73.65670776 C-45.16092802 72.48024858 -50.50535458 71.02546094 -55.8671875 69.3203125 C-56.66859161 69.06627655 -57.46999573 68.8122406 -58.29568481 68.55050659 C-59.97195591 68.0166335 -61.64747826 67.48040408 -63.32226562 66.94189453 C-65.88546066 66.12165251 -68.45420863 65.32064128 -71.0234375 64.51953125 C-72.65923104 63.99596768 -74.29466155 63.47126823 -75.9296875 62.9453125 C-76.69529999 62.7097464 -77.46091248 62.4741803 -78.24972534 62.23147583 C-82.33731529 60.89004463 -84.91997933 59.86479423 -87 56 C-87.71162443 54.35202764 -88.39031953 52.68834592 -89 51 C-90.32477959 52.04714924 -91.63443746 53.11344669 -92.9375 54.1875 C-93.66839844 54.77917969 -94.39929688 55.37085938 -95.15234375 55.98046875 C-97.29738803 58.32505203 -97.66094412 59.88391498 -98 63 C-98.33 63 -98.66 63 -99 63 C-99.265625 60.23046875 -99.265625 60.23046875 -99 57 C-97.234375 55.11328125 -97.234375 55.11328125 -94.75 53.3125 C-86.85467745 46.65151661 -82.16450128 37.82791854 -77 29 C-76.45956055 28.07848145 -75.91912109 27.15696289 -75.36230469 26.20751953 C-70.33081026 17.58911408 -65.38552186 8.96756474 -61 0 C-60.09495728 0.10501831 -60.09495728 0.10501831 -59.17163086 0.2121582 C-51.35541072 1.02834738 -43.57965438 1.18619058 -35.73022461 1.18530273 C-33.56929922 1.18749311 -31.40888286 1.20573423 -29.24804688 1.22460938 C-21.84879678 1.25264445 -14.79957787 0.90146462 -7.53100586 -0.66674805 C-4.71154972 -1.03797961 -2.70926161 -0.85285041 0 0 Z " fill="#FAF4D6" transform="translate(278,341)"/>
<path d="M0 0 C1.50917435 2.26376152 2.60616193 4.18047604 3.69921875 6.625 C7.59200942 15.19840802 11.69391097 23.19692789 17 31 C17.99002146 32.49754892 18.97813576 33.99635957 19.96484375 35.49609375 C21.03851624 37.12275652 22.11273786 38.74905697 23.1875 40.375 C23.69893555 41.14900146 24.21037109 41.92300293 24.73730469 42.72045898 C31.23046879 52.80790544 31.23046879 52.80790544 41.375 58.75 C41.91125 58.8325 42.4475 58.915 43 59 C43 60.65 43 62.3 43 64 C42.34 64 41.68 64 41 64 C41 63.01 41 62.02 41 61 C40.278125 60.731875 39.55625 60.46375 38.8125 60.1875 C36.02409874 59.01017502 33.55904276 57.60854116 31 56 C30.67 58.31 30.34 60.62 30 63 C15.80374258 67.14057508 15.80374258 67.14057508 10 67 C5.99390699 57.80835512 2.30682876 48.16651159 3 38 C3.66 38 4.32 38 5 38 C7.31 44.6 9.62 51.2 12 58 C11.32550051 54.62750253 10.61954135 51.53867742 9.625 48.27734375 C9.36203125 47.40916016 9.0990625 46.54097656 8.828125 45.64648438 C8.41820312 44.30553711 8.41820312 44.30553711 8 42.9375 C7.45750517 41.15519978 6.91580858 39.37265636 6.375 37.58984375 C6.13523437 36.80472412 5.89546875 36.01960449 5.6484375 35.21069336 C5.04423428 33.15080626 4.50426565 31.08633967 4 29 C4.495 32.465 4.495 32.465 5 36 C3.515 36.495 3.515 36.495 2 37 C1.86722656 36.07316406 1.73445313 35.14632812 1.59765625 34.19140625 C1.33275391 32.39509766 1.33275391 32.39509766 1.0625 30.5625 C0.80146484 28.77005859 0.80146484 28.77005859 0.53515625 26.94140625 C0.31014787 24.12044324 0.31014787 24.12044324 -1 23 C-0.97679687 23.63421875 -0.95359375 24.2684375 -0.9296875 24.921875 C-0.65900161 38.92020266 -0.82442271 56.14864289 -7 69 C-11.59350876 72.26845816 -16.50387941 72.4314358 -22 73 C-22.33 73.33 -22.66 73.66 -23 74 C-26.27132834 73.99087496 -29.53192629 73.86664558 -32.80078125 73.7421875 C-36.31677928 74.025528 -37.52275672 74.56243797 -40 77 C-40.66 77.99 -41.32 78.98 -42 80 C-42.25 77.75 -42.25 77.75 -42 75 C-40 72.6875 -40 72.6875 -38 71 C-38.54681427 70.88671356 -39.09362854 70.77342712 -39.65701294 70.65670776 C-45.16092802 69.48024858 -50.50535458 68.02546094 -55.8671875 66.3203125 C-56.66859161 66.06627655 -57.46999573 65.8122406 -58.29568481 65.55050659 C-59.97195591 65.0166335 -61.64747826 64.48040408 -63.32226562 63.94189453 C-65.88546066 63.12165251 -68.45420863 62.32064128 -71.0234375 61.51953125 C-72.65923104 60.99596768 -74.29466155 60.47126823 -75.9296875 59.9453125 C-76.69529999 59.7097464 -77.46091248 59.4741803 -78.24972534 59.23147583 C-82.33731529 57.89004463 -84.91997933 56.86479423 -87 53 C-87.71162443 51.35202764 -88.39031953 49.68834592 -89 48 C-90.32477959 49.04714924 -91.63443746 50.11344669 -92.9375 51.1875 C-93.66839844 51.77917969 -94.39929688 52.37085938 -95.15234375 52.98046875 C-97.29738803 55.32505203 -97.66094412 56.88391498 -98 60 C-98.33 60 -98.66 60 -99 60 C-99.38132603 56.25210984 -99.35796254 54.51181027 -97.1640625 51.375 C-96.32617188 50.59125 -95.48828125 49.8075 -94.625 49 C-93.81289062 48.195625 -93.00078125 47.39125 -92.1640625 46.5625 C-87.38924513 44.2045655 -83.96112113 45.57797172 -79 47 C-78.08524902 47.24524414 -77.17049805 47.49048828 -76.22802734 47.74316406 C-73.43397314 48.50664145 -70.65419078 49.30919821 -67.875 50.125 C-66.91851562 50.40214844 -65.96203125 50.67929687 -64.9765625 50.96484375 C-62.64994713 51.63956221 -60.32448578 52.3179883 -58 53 C-58 52.01 -58 51.02 -58 50 C-57.01 50.495 -57.01 50.495 -56 51 C-56.33 51.99 -56.66 52.98 -57 54 C-56.45182617 54.13140381 -55.90365234 54.26280762 -55.33886719 54.39819336 C-52.72691525 55.07026659 -50.15746456 55.84077472 -47.578125 56.62890625 C-46.55332031 56.94150391 -45.52851563 57.25410156 -44.47265625 57.57617188 C-43.40917969 57.90166016 -42.34570312 58.22714844 -41.25 58.5625 C-40.17105469 58.89185547 -39.09210938 59.22121094 -37.98046875 59.56054688 C-35.32003753 60.37280243 -32.6598937 61.18598628 -30 62 C-29.35160156 60.90171875 -28.70320313 59.8034375 -28.03515625 58.671875 C-27.67043213 58.0540918 -27.30570801 57.43630859 -26.92993164 56.79980469 C-25.7897654 54.59310856 -25.47155187 52.42512391 -25 50 C-24.5563208 49.58911133 -24.1126416 49.17822266 -23.65551758 48.75488281 C-21.36722729 46.32924786 -20.38566891 43.73357608 -19.07421875 40.671875 C-18.80414505 40.0458136 -18.53407135 39.4197522 -18.2558136 38.77471924 C-17.39297435 36.76929251 -16.54034002 34.75969612 -15.6875 32.75 C-15.12626672 31.44504754 -14.56442294 30.14035746 -14.00195312 28.8359375 C-11.71051093 23.49848176 -9.43252719 18.16344422 -7.35009766 12.74023438 C-7.08413284 12.05262024 -6.81816803 11.3650061 -6.54414368 10.65655518 C-5.81101218 8.7485792 -5.09030788 6.83584164 -4.37036133 4.92285156 C-3 2 -3 2 0 0 Z " fill="#F7F1D4" transform="translate(278,344)"/>
<path d="M0 0 C0.95455078 -0.01998047 1.90910156 -0.03996094 2.89257812 -0.06054688 C3.81361328 -0.05990234 4.73464844 -0.05925781 5.68359375 -0.05859375 C6.5233374 -0.06044678 7.36308105 -0.0622998 8.22827148 -0.06420898 C11.43632955 0.62531715 12.6046303 1.83630658 14.5625 4.4375 C15.37178355 8.23316948 15.16558629 12.06509026 15.125 15.9375 C15.14884766 16.98292969 15.17269531 18.02835938 15.19726562 19.10546875 C15.18291584 26.57692319 15.18291584 26.57692319 12.625 30.125 C8.34359487 31.95988791 4.61247367 32.02181026 0 31.9375 C-0.85013672 31.95296875 -1.70027344 31.9684375 -2.57617188 31.984375 C-3.80883789 31.97664063 -3.80883789 31.97664063 -5.06640625 31.96875 C-5.80963135 31.96423828 -6.55285645 31.95972656 -7.31860352 31.95507812 C-10.36695634 31.21046377 -11.55454454 29.91489404 -13.4375 27.4375 C-13.93920898 24.82788086 -13.93920898 24.82788086 -13.93359375 21.90234375 C-13.93423828 20.84595703 -13.93488281 19.78957031 -13.93554688 18.70117188 C-13.91556641 17.60353516 -13.89558594 16.50589844 -13.875 15.375 C-13.88208984 14.27349609 -13.88917969 13.17199219 -13.89648438 12.03710938 C-13.83281108 4.01917202 -13.83281108 4.01917202 -12.20703125 1.62695312 C-8.63667763 -0.77298656 -4.158918 -0.03076537 0 0 Z " fill="#1F4139" transform="translate(400.4375,224.5625)"/>
<path d="M0 0 C0.95455078 -0.01998047 1.90910156 -0.03996094 2.89257812 -0.06054688 C3.81361328 -0.05990234 4.73464844 -0.05925781 5.68359375 -0.05859375 C6.5233374 -0.06044678 7.36308105 -0.0622998 8.22827148 -0.06420898 C11.43632955 0.62531715 12.6046303 1.83630658 14.5625 4.4375 C15.37178355 8.23316948 15.16558629 12.06509026 15.125 15.9375 C15.14884766 16.98292969 15.17269531 18.02835938 15.19726562 19.10546875 C15.18291584 26.57692319 15.18291584 26.57692319 12.625 30.125 C8.34359487 31.95988791 4.61247367 32.02181026 0 31.9375 C-0.85013672 31.95296875 -1.70027344 31.9684375 -2.57617188 31.984375 C-3.80883789 31.97664063 -3.80883789 31.97664063 -5.06640625 31.96875 C-5.80963135 31.96423828 -6.55285645 31.95972656 -7.31860352 31.95507812 C-10.36695634 31.21046377 -11.55454454 29.91489404 -13.4375 27.4375 C-13.93920898 24.82788086 -13.93920898 24.82788086 -13.93359375 21.90234375 C-13.93423828 20.84595703 -13.93488281 19.78957031 -13.93554688 18.70117188 C-13.91556641 17.60353516 -13.89558594 16.50589844 -13.875 15.375 C-13.88208984 14.27349609 -13.88917969 13.17199219 -13.89648438 12.03710938 C-13.83281108 4.01917202 -13.83281108 4.01917202 -12.20703125 1.62695312 C-8.63667763 -0.77298656 -4.158918 -0.03076537 0 0 Z " fill="#1F4139" transform="translate(296.4375,224.5625)"/>
<path d="M0 0 C3.34125 -0.12375 6.6825 -0.2475 10.125 -0.375 C11.16672363 -0.42962402 12.20844727 -0.48424805 13.28173828 -0.54052734 C17.73409081 -0.62017127 21.13219074 -0.56250507 24.6328125 2.3984375 C28.01334582 6.50674979 27.88541455 10.88433913 27.75 16 C27.77320312 16.8765625 27.79640625 17.753125 27.8203125 18.65625 C27.78138294 22.96445459 27.4270973 26.20570939 24.6328125 29.6015625 C20.34456457 33.22870554 15.45313309 32.65438702 10.125 32.375 C6.78375 32.25125 3.4425 32.1275 0 32 C0 21.44 0 10.88 0 0 Z " fill="#1F4139" transform="translate(85,224)"/>
<path d="M0 0 C2.64 0 5.28 0 8 0 C8.98838433 2.0372203 9.96532252 4.07999607 10.9375 6.125 C11.48277344 7.26195312 12.02804687 8.39890625 12.58984375 9.5703125 C13.9103119 12.78186661 14.58784221 15.56709079 15 19 C15.66 19 16.32 19 17 19 C17.1134375 18.30390625 17.226875 17.6078125 17.34375 16.890625 C18.07834562 13.65490619 19.20619388 10.80398421 20.5 7.75 C20.9434375 6.69296875 21.386875 5.6359375 21.84375 4.546875 C23 2 23 2 24 1 C26.64 1 29.28 1 32 1 C32 11.23 32 21.46 32 32 C29.69 32 27.38 32 25 32 C24.67 27.05 24.34 22.1 24 17 C22.02 21.62 20.04 26.24 18 31 C16.68 31 15.36 31 14 31 C12.35 27.04 10.7 23.08 9 19 C8.67 23.29 8.34 27.58 8 32 C5.36 32 2.72 32 0 32 C0 21.44 0 10.88 0 0 Z " fill="#1E4038" transform="translate(317,224)"/>
<path d="M0 0 C3.5475 -0.0825 7.095 -0.165 10.75 -0.25 C11.86213867 -0.28641602 12.97427734 -0.32283203 14.12011719 -0.36035156 C21.2757934 -0.44128041 21.2757934 -0.44128041 24.6796875 1.6328125 C26.36143605 4.64801848 26.46798736 6.68446756 26.375 10.125 C26.35566406 11.70667969 26.35566406 11.70667969 26.3359375 13.3203125 C26 16 26 16 24 18 C24.41720949 22.48500198 25.71058183 26.70193944 27 31 C24.36 31 21.72 31 19 31 C17.68 27.7 16.36 24.4 15 21 C12.69 20.67 10.38 20.34 8 20 C8 23.63 8 27.26 8 31 C5.36 31 2.72 31 0 31 C0 20.77 0 10.54 0 0 Z " fill="#193C35" transform="translate(250,225)"/>
<path d="M0 0 C4.29 0 8.58 0 13 0 C15.33896818 6.03355454 17.33468877 12.11358836 19.1875 18.3125 C19.46013672 19.20517578 19.73277344 20.09785156 20.01367188 21.01757812 C20.27083984 21.87416016 20.52800781 22.73074219 20.79296875 23.61328125 C21.0252417 24.38454346 21.25751465 25.15580566 21.49682617 25.95043945 C22 28 22 28 22 31 C19.03 31 16.06 31 13 31 C12.67 29.02 12.34 27.04 12 25 C8.04 25 4.08 25 0 25 C-0.33 26.98 -0.66 28.96 -1 31 C-3.64 31 -6.28 31 -9 31 C-7.32485476 20.78161402 -4.66034912 9.32069824 0 0 Z " fill="#1E4038" transform="translate(211,225)"/>
<path d="M0 0 C0.9590625 -0.00773437 1.918125 -0.01546875 2.90625 -0.0234375 C5.5 0.375 5.5 0.375 7.13720703 1.50537109 C9.12018843 4.22584253 8.88850995 6.34806294 8.8984375 9.6875 C8.90423828 11.54761719 8.90423828 11.54761719 8.91015625 13.4453125 C8.89855469 14.74210937 8.88695312 16.03890625 8.875 17.375 C8.88660156 18.67179687 8.89820313 19.96859375 8.91015625 21.3046875 C8.90628906 22.54476563 8.90242188 23.78484375 8.8984375 25.0625 C8.89505371 26.20074219 8.89166992 27.33898437 8.88818359 28.51171875 C8.5 31.375 8.5 31.375 7.13720703 33.24462891 C4.75176758 34.89159948 2.86852946 34.7731333 0 34.75 C-1.43859375 34.76160156 -1.43859375 34.76160156 -2.90625 34.7734375 C-5.5 34.375 -5.5 34.375 -7.13720703 33.24462891 C-9.12018843 30.52415747 -8.88850995 28.40193706 -8.8984375 25.0625 C-8.90230469 23.82242187 -8.90617188 22.58234375 -8.91015625 21.3046875 C-8.89855469 20.00789063 -8.88695312 18.71109375 -8.875 17.375 C-8.88660156 16.07820313 -8.89820313 14.78140625 -8.91015625 13.4453125 C-8.90628906 12.20523437 -8.90242187 10.96515625 -8.8984375 9.6875 C-8.89505371 8.54925781 -8.89166992 7.41101563 -8.88818359 6.23828125 C-8.5 3.375 -8.5 3.375 -7.13720703 1.50537109 C-4.75176758 -0.14159948 -2.86852946 -0.0231333 0 0 Z " fill="#F7F1D4" transform="translate(174.5,339.625)"/>
<path d="M0 0 C7.59 0 15.18 0 23 0 C23 1.98 23 3.96 23 6 C18.05 6 13.1 6 8 6 C8 7.98 8 9.96 8 12 C12.62 12 17.24 12 22 12 C22 13.98 22 15.96 22 18 C17.38 18 12.76 18 8 18 C8 19.98 8 21.96 8 24 C13.28 24 18.56 24 24 24 C24 26.31 24 28.62 24 31 C16.08 31 8.16 31 0 31 C0 20.77 0 10.54 0 0 Z " fill="#1C3F37" transform="translate(357,225)"/>
<path d="M0 0 C7.59 0 15.18 0 23 0 C23 1.98 23 3.96 23 6 C18.05 6 13.1 6 8 6 C8 7.98 8 9.96 8 12 C12.62 12 17.24 12 22 12 C22 13.98 22 15.96 22 18 C17.38 18 12.76 18 8 18 C8 19.98 8 21.96 8 24 C13.28 24 18.56 24 24 24 C24 26.31 24 28.62 24 31 C16.08 31 8.16 31 0 31 C0 20.77 0 10.54 0 0 Z " fill="#1C3F37" transform="translate(119,225)"/>
<path d="M0 0 C0.9590625 -0.00773437 1.918125 -0.01546875 2.90625 -0.0234375 C5.5 0.375 5.5 0.375 7.29296875 1.47265625 C9.72385289 5.30385553 9.31997669 9.58188809 9.265625 13.984375 C8.5 17.375 8.5 17.375 6.296875 19.453125 C3.5625 20.9375 3.5625 20.9375 0.78515625 22.06640625 C-1.77225899 23.18538107 -1.77225899 23.18538107 -2.31640625 26.02734375 C-2.37699219 26.80207031 -2.43757813 27.57679688 -2.5 28.375 C-0.85 28.375 0.8 28.375 2.5 28.375 C2.5 27.715 2.5 27.055 2.5 26.375 C4.48 26.375 6.46 26.375 8.5 26.375 C8.5 29.015 8.5 31.655 8.5 34.375 C2.89 34.375 -2.72 34.375 -8.5 34.375 C-8.5 29.425 -8.5 24.475 -8.5 19.375 C0.25 14.375 0.25 14.375 2.5 14.375 C2.5 11.735 2.5 9.095 2.5 6.375 C0.85 6.375 -0.8 6.375 -2.5 6.375 C-2.5 8.025 -2.5 9.675 -2.5 11.375 C-4.48 11.375 -6.46 11.375 -8.5 11.375 C-8.86660877 3.92062174 -8.86660877 3.92062174 -7.33203125 1.63671875 C-4.81861313 -0.0942707 -3.02951647 -0.02443158 0 0 Z " fill="#F6F1D4" transform="translate(325.5,339.625)"/>
<path d="M0 0 C1.43859375 0.00580078 1.43859375 0.00580078 2.90625 0.01171875 C5.5 0.3125 5.5 0.3125 8.5 2.3125 C8.72107787 5.1010289 8.78107535 7.65903181 8.6875 10.4375 C8.66719727 11.56865234 8.66719727 11.56865234 8.64648438 12.72265625 C8.61109985 14.58624127 8.55729167 16.44945978 8.5 18.3125 C7.78972656 18.61542969 7.07945312 18.91835938 6.34765625 19.23046875 C5.42855469 19.64941406 4.50945312 20.06835938 3.5625 20.5 C2.18771484 21.10908203 2.18771484 21.10908203 0.78515625 21.73046875 C-1.74817296 23.1348391 -1.74817296 23.1348391 -2.31640625 25.98828125 C-2.37699219 26.75527344 -2.43757812 27.52226562 -2.5 28.3125 C-0.85 28.3125 0.8 28.3125 2.5 28.3125 C2.5 27.6525 2.5 26.9925 2.5 26.3125 C4.48 26.3125 6.46 26.3125 8.5 26.3125 C8.5 28.9525 8.5 31.5925 8.5 34.3125 C2.89 34.3125 -2.72 34.3125 -8.5 34.3125 C-9.4589823 21.48611168 -9.4589823 21.48611168 -6.859375 18.3046875 C-3.54511213 16.25475454 -0.28480538 15.17345798 3.5 14.3125 C3.5 11.6725 3.5 9.0325 3.5 6.3125 C1.52 6.3125 -0.46 6.3125 -2.5 6.3125 C-2.5 7.9625 -2.5 9.6125 -2.5 11.3125 C-4.48 11.3125 -6.46 11.3125 -8.5 11.3125 C-8.86655259 3.85926406 -8.86655259 3.85926406 -7.33203125 1.5703125 C-4.81277823 -0.1593239 -3.03158008 -0.05297116 0 0 Z " fill="#F4EFD2" transform="translate(152.5,339.6875)"/>
<path d="M0 0 C1.59134766 -0.02513672 1.59134766 -0.02513672 3.21484375 -0.05078125 C6.0625 0.3125 6.0625 0.3125 7.9296875 1.4609375 C9.55510536 4.11765496 9.35304758 6.16238925 9.25 9.25 C9.22292969 10.29027344 9.19585937 11.33054687 9.16796875 12.40234375 C9.13316406 13.36269531 9.09835937 14.32304687 9.0625 15.3125 C9.0625 17.61636233 9.09192717 19.92147901 9.203125 22.22265625 C9.23921875 23.26292969 9.2753125 24.30320312 9.3125 25.375 C9.35890625 26.41785156 9.4053125 27.46070313 9.453125 28.53515625 C9.0625 31.3125 9.0625 31.3125 7.36328125 33.1640625 C4.69931558 34.4937839 2.96507449 34.68313872 0 34.625 C-1.28583984 34.61919922 -1.28583984 34.61919922 -2.59765625 34.61328125 C-4.9375 34.3125 -4.9375 34.3125 -7.9375 32.3125 C-8.125 29.1875 -8.125 29.1875 -7.9375 26.3125 C-5.9575 26.3125 -3.9775 26.3125 -1.9375 26.3125 C-1.9375 26.9725 -1.9375 27.6325 -1.9375 28.3125 C-0.2875 28.3125 1.3625 28.3125 3.0625 28.3125 C3.0625 25.6725 3.0625 23.0325 3.0625 20.3125 C1.3609375 20.3434375 1.3609375 20.3434375 -0.375 20.375 C-3.9375 20.3125 -3.9375 20.3125 -4.9375 19.3125 C-4.97813832 17.64632885 -4.980221 15.97861905 -4.9375 14.3125 C-2.2975 14.3125 0.3425 14.3125 3.0625 14.3125 C3.0625 11.6725 3.0625 9.0325 3.0625 6.3125 C1.4125 6.3125 -0.2375 6.3125 -1.9375 6.3125 C-1.9375 6.9725 -1.9375 7.6325 -1.9375 8.3125 C-3.9175 8.3125 -5.8975 8.3125 -7.9375 8.3125 C-8.0625 5.4375 -8.0625 5.4375 -7.9375 2.3125 C-5.24648766 -0.37851234 -3.74674054 0.01362451 0 0 Z " fill="#F1ECD0" transform="translate(346.9375,339.6875)"/>
<path d="M0 0 C0.91475098 0.24524414 1.82950195 0.49048828 2.77197266 0.74316406 C5.56602686 1.50664145 8.34580922 2.30919821 11.125 3.125 C12.08148438 3.40214844 13.03796875 3.67929687 14.0234375 3.96484375 C16.35005287 4.63956221 18.67551422 5.3179883 21 6 C21 5.01 21 4.02 21 3 C21.66 3.33 22.32 3.66 23 4 C22.67 4.99 22.34 5.98 22 7 C22.57669434 7.14187744 23.15338867 7.28375488 23.74755859 7.42993164 C27.39615013 8.35335037 31.00841287 9.39682098 34.625 10.4375 C35.78902344 10.76331055 35.78902344 10.76331055 36.9765625 11.09570312 C42.77051854 12.77051854 42.77051854 12.77051854 45 15 C38.82330156 14.25753241 33.2176957 12.61830608 27.3046875 10.7421875 C24.02639513 10.00592799 22.17978791 10.05206323 19 11 C18.67 12.98 18.34 14.96 18 17 C12.13214348 15.47528138 6.29345061 13.84999147 0.5 12.0625 C-0.4796875 11.76472656 -1.459375 11.46695312 -2.46875 11.16015625 C-6.30972452 9.3997096 -7.55212521 7.03718371 -9.1875 3.25 C-9.455625 2.5075 -9.72375 1.765 -10 1 C-11.32477959 2.04714924 -12.63443746 3.11344669 -13.9375 4.1875 C-15.03384766 5.07501953 -15.03384766 5.07501953 -16.15234375 5.98046875 C-18.29738803 8.32505203 -18.66094412 9.88391498 -19 13 C-19.33 13 -19.66 13 -20 13 C-20.38132603 9.25210984 -20.35796254 7.51181027 -18.1640625 4.375 C-17.32617188 3.59125 -16.48828125 2.8075 -15.625 2 C-14.81289062 1.195625 -14.00078125 0.39125 -13.1640625 -0.4375 C-8.38924513 -2.7954345 -4.96112113 -1.42202828 0 0 Z " fill="#EAE7CB" transform="translate(199,391)"/>
<path d="M0 0 C8.25 0 16.5 0 25 0 C25 1.98 25 3.96 25 6 C22.03 6 19.06 6 16 6 C16 14.25 16 22.5 16 31 C13.36 31 10.72 31 8 31 C8 22.75 8 14.5 8 6 C5.36 6 2.72 6 0 6 C0 4.02 0 2.04 0 0 Z " fill="#193C35" transform="translate(175,225)"/>
<path d="M0 0 C1.06347656 -0.00773437 2.12695312 -0.01546875 3.22265625 -0.0234375 C4.11855469 0.10804688 5.01445312 0.23953125 5.9375 0.375 C8.39812979 4.06594468 8.20566777 6.04544195 8.1875 10.4375 C8.19265625 11.68660156 8.1978125 12.93570312 8.203125 14.22265625 C7.9375 17.375 7.9375 17.375 5.9375 19.375 C3.3125 19.5 3.3125 19.5 0.9375 19.375 C0.9375 20.035 0.9375 20.695 0.9375 21.375 C-0.0525 21.375 -1.0425 21.375 -2.0625 21.375 C-2.0625 20.715 -2.0625 20.055 -2.0625 19.375 C-2.84625 19.25125 -3.63 19.1275 -4.4375 19 C-7.0625 18.375 -7.0625 18.375 -9.0625 16.375 C-9.36328125 13.44140625 -9.36328125 13.44140625 -9.375 9.9375 C-9.39175781 8.78378906 -9.40851563 7.63007813 -9.42578125 6.44140625 C-9.0625 3.375 -9.0625 3.375 -7.921875 1.48828125 C-5.24208739 -0.11621343 -3.10115218 -0.02260864 0 0 Z " fill="#36474B" transform="translate(267.0625,277.625)"/>
<path d="M0 0 C2.31 0 4.62 0 7 0 C7 8.25 7 16.5 7 25 C11.95 25 16.9 25 22 25 C22 26.98 22 28.96 22 31 C14.74 31 7.48 31 0 31 C0 20.77 0 10.54 0 0 Z " fill="#153932" transform="translate(150,225)"/>
<path d="M0 0 C1.06347656 -0.00773437 2.12695312 -0.01546875 3.22265625 -0.0234375 C4.11855469 0.10804688 5.01445312 0.23953125 5.9375 0.375 C8.39812979 4.06594468 8.20566777 6.04544195 8.1875 10.4375 C8.19265625 11.68660156 8.1978125 12.93570312 8.203125 14.22265625 C7.9375 17.375 7.9375 17.375 5.9375 19.375 C3.22265625 19.67578125 3.22265625 19.67578125 0 19.6875 C-1.06089844 19.70425781 -2.12179688 19.72101563 -3.21484375 19.73828125 C-6.0625 19.375 -6.0625 19.375 -7.91796875 18.26171875 C-9.61876654 15.45801454 -9.45946346 13.12559154 -9.4375 9.875 C-9.44910156 8.15796875 -9.44910156 8.15796875 -9.4609375 6.40625 C-9.0625 3.375 -9.0625 3.375 -7.91796875 1.4921875 C-5.24121001 -0.11950302 -3.10178039 -0.02261322 0 0 Z " fill="#37484C" transform="translate(181.0625,277.625)"/>
<path d="M0 0 C2.71484375 -0.3984375 2.71484375 -0.3984375 5.9375 -0.375 C6.99839844 -0.38273437 8.05929688 -0.39046875 9.15234375 -0.3984375 C12 0 12 0 13.85546875 1.1171875 C15.5581153 3.91812824 15.39695173 6.25114469 15.375 9.5 C15.38273437 10.6446875 15.39046875 11.789375 15.3984375 12.96875 C15 16 15 16 13.85546875 17.88671875 C11.17466808 19.49519915 9.03933619 19.3614962 5.9375 19.3125 C4.87402344 19.30863281 3.81054688 19.30476563 2.71484375 19.30078125 C0 19 0 19 -2 17 C-2.265625 13.84765625 -2.265625 13.84765625 -2.25 10.0625 C-2.25515625 8.81597656 -2.2603125 7.56945312 -2.265625 6.28515625 C-2 3 -2 3 0 0 Z " fill="#35464B" transform="translate(97,278)"/>
<path d="M0 0 C1.0725 0.00515625 2.145 0.0103125 3.25 0.015625 C4.85875 0.00789063 4.85875 0.00789063 6.5 0 C9.25 0.265625 9.25 0.265625 11.25 2.265625 C11.44849071 4.81097641 11.52851775 7.22279259 11.5 9.765625 C11.50773437 10.45527344 11.51546875 11.14492188 11.5234375 11.85546875 C11.50333293 17.01229207 11.50333293 17.01229207 9.25 19.265625 C6.5 19.53125 6.5 19.53125 3.25 19.515625 C1.64125 19.52335937 1.64125 19.52335937 0 19.53125 C-2.75 19.265625 -2.75 19.265625 -4.75 17.265625 C-4.94849071 14.72027359 -5.02851775 12.30845741 -5 9.765625 C-5.00773438 9.07597656 -5.01546875 8.38632812 -5.0234375 7.67578125 C-4.99539356 0.4825096 -4.99539356 0.4825096 0 0 Z " fill="#34454A" transform="translate(197.75,277.734375)"/>
<path d="M0 0 C12.43017239 -0.49228406 12.43017239 -0.49228406 14.89453125 1.63671875 C16.27835241 4.59506434 16.39923974 6.80225545 16.375 10.0625 C16.38273437 11.10535156 16.39046875 12.14820313 16.3984375 13.22265625 C16 16 16 16 14.89453125 17.859375 C10.68769418 20.39215113 4.67454313 19.13884782 0 19 C0 12.73 0 6.46 0 0 Z " fill="#35464A" transform="translate(153,278)"/>
<path d="M0 0 C1.65 0 3.3 0 5 0 C6.65 3.3 8.3 6.6 10 10 C11.32 6.7 12.64 3.4 14 0 C15.65 0 17.3 0 19 0 C19 6.27 19 12.54 19 19 C17.68 19 16.36 19 15 19 C14.67 16.36 14.34 13.72 14 11 C13.01 13.31 12.02 15.62 11 18 C10.01 18 9.02 18 8 18 C7.34 16.35 6.68 14.7 6 13 C5.67 14.98 5.34 16.96 5 19 C3.35 19 1.7 19 0 19 C0 12.73 0 6.46 0 0 Z " fill="#334449" transform="translate(330,278)"/>
<path d="M0 0 C2.26875 -0.061875 4.5375 -0.12375 6.875 -0.1875 C8.78925781 -0.23970703 8.78925781 -0.23970703 10.7421875 -0.29296875 C11.81726563 -0.19628906 12.89234375 -0.09960938 14 0 C16.46270288 3.69405432 16.22985417 5.63277072 16 10 C15.79375 10.70125 15.5875 11.4025 15.375 12.125 C14.83306795 14.83466026 15.84757018 16.55956038 17 19 C15.35 19 13.7 19 12 19 C11.34 17.02 10.68 15.04 10 13 C8.35 13 6.7 13 5 13 C5 14.98 5 16.96 5 19 C3.35 19 1.7 19 0 19 C0 12.73 0 6.46 0 0 Z " fill="#38494D" transform="translate(213,278)"/>
<path d="M0 0 C12.44220129 -0.36957034 12.44220129 -0.36957034 14.8984375 1.2578125 C16.92807135 4.46780079 16.29511215 7.28158685 16 11 C14 13 14 13 11.8359375 13.1953125 C10.61777344 13.16050781 10.61777344 13.16050781 9.375 13.125 C8.55773437 13.10695313 7.74046875 13.08890625 6.8984375 13.0703125 C6.27195312 13.04710937 5.64546875 13.02390625 5 13 C5 14.98 5 16.96 5 19 C3.35 19 1.7 19 0 19 C0 12.73 0 6.46 0 0 Z " fill="#394A4D" transform="translate(311,278)"/>
<path d="M0 0 C1.81242052 -0.02687279 3.62495233 -0.04633715 5.4375 -0.0625 C6.44683594 -0.07410156 7.45617187 -0.08570313 8.49609375 -0.09765625 C11 0 11 0 12 1 C12.09986975 3.84335048 12.13877881 6.65697163 12.125 9.5 C12.12886719 10.29792969 12.13273437 11.09585938 12.13671875 11.91796875 C12.12660767 17.87339233 12.12660767 17.87339233 11 19 C9.33570949 19.09823937 7.66718069 19.12973631 6 19.125 C4.63875 19.12886719 4.63875 19.12886719 3.25 19.1328125 C1 19 1 19 0 18 C-0.08631874 16.65732587 -0.10706473 15.31025678 -0.09765625 13.96484375 C-0.09443359 13.15595703 -0.09121094 12.34707031 -0.08789062 11.51367188 C-0.07951172 10.66353516 -0.07113281 9.81339844 -0.0625 8.9375 C-0.05798828 8.08349609 -0.05347656 7.22949219 -0.04882812 6.34960938 C-0.03700373 4.23304337 -0.01906769 2.11651315 0 0 Z " fill="#F6F0D3" transform="translate(395,231)"/>
<path d="M0 0 C1.81242052 -0.02687279 3.62495233 -0.04633715 5.4375 -0.0625 C6.44683594 -0.07410156 7.45617187 -0.08570313 8.49609375 -0.09765625 C11 0 11 0 12 1 C12.09986975 3.84335048 12.13877881 6.65697163 12.125 9.5 C12.12886719 10.29792969 12.13273437 11.09585938 12.13671875 11.91796875 C12.12660767 17.87339233 12.12660767 17.87339233 11 19 C9.33570949 19.09823937 7.66718069 19.12973631 6 19.125 C4.63875 19.12886719 4.63875 19.12886719 3.25 19.1328125 C1 19 1 19 0 18 C-0.08631874 16.65732587 -0.10706473 15.31025678 -0.09765625 13.96484375 C-0.09443359 13.15595703 -0.09121094 12.34707031 -0.08789062 11.51367188 C-0.07951172 10.66353516 -0.07113281 9.81339844 -0.0625 8.9375 C-0.05798828 8.08349609 -0.05347656 7.22949219 -0.04882812 6.34960938 C-0.03700373 4.23304337 -0.01906769 2.11651315 0 0 Z " fill="#F6F0D3" transform="translate(291,231)"/>
<path d="M0 0 C1.65 0 3.3 0 5 0 C6.58203125 1.75 6.58203125 1.75 7.8125 4 C8.23144531 4.7425 8.65039062 5.485 9.08203125 6.25 C9.38496094 6.8275 9.68789063 7.405 10 8 C10.33 5.36 10.66 2.72 11 0 C12.65 0 14.3 0 16 0 C16 6.27 16 12.54 16 19 C14.35 19 12.7 19 11 19 C10.16151196 17.54462432 9.32936066 16.08559627 8.5 14.625 C8.0359375 13.81289063 7.571875 13.00078125 7.09375 12.1640625 C6 10 6 10 6 8 C5.34 8 4.68 8 4 8 C4 11.63 4 15.26 4 19 C2.68 19 1.36 19 0 19 C0 12.73 0 6.46 0 0 Z " fill="#334449" transform="translate(372,278)"/>
<path d="M0 0 C1.60875 -0.04125 3.2175 -0.0825 4.875 -0.125 C5.77992187 -0.14820313 6.68484375 -0.17140625 7.6171875 -0.1953125 C10 0 10 0 12 2 C12.19849071 4.54535141 12.27851775 6.95716759 12.25 9.5 C12.25773437 10.18964844 12.26546875 10.87929687 12.2734375 11.58984375 C12.25333293 16.74666707 12.25333293 16.74666707 10 19 C7.6171875 19.1953125 7.6171875 19.1953125 4.875 19.125 C3.26625 19.08375 1.6575 19.0425 0 19 C0 12.73 0 6.46 0 0 Z " fill="#F2EDD0" transform="translate(93,231)"/>
<path d="M0 0 C4.95 0 9.9 0 15 0 C15 1.32 15 2.64 15 4 C11.7 4 8.4 4 5 4 C5 5.32 5 6.64 5 8 C7.97 8 10.94 8 14 8 C14 8.99 14 9.98 14 11 C11.03 11 8.06 11 5 11 C5 12.32 5 13.64 5 15 C8.3 15 11.6 15 15 15 C15 16.32 15 17.64 15 19 C10.05 19 5.1 19 0 19 C0 12.73 0 6.46 0 0 Z " fill="#3A4A4E" transform="translate(240,278)"/>
<path d="M0 0 C0.66 0 1.32 0 2 0 C1.62155193 14.47093403 0.80736198 28.2022468 -4 42 C-5.32 41.67 -6.64 41.34 -8 41 C-8 41.66 -8 42.32 -8 43 C-8.99 42.67 -9.98 42.34 -11 42 C-10.8131665 41.45762695 -10.62633301 40.91525391 -10.43383789 40.35644531 C-8.5697356 34.86707877 -6.91450587 29.35543438 -5.4375 23.75 C-5.22061523 22.93096191 -5.00373047 22.11192383 -4.78027344 21.26806641 C-3.23952153 15.295607 -2.13058285 9.39682781 -1.359375 3.2734375 C-1 1 -1 1 0 0 Z " fill="#EFEBCF" transform="translate(275,371)"/>
<path d="M0 0 C1.65 0 3.3 0 5 0 C5 4.95 5 9.9 5 15 C7.31 15 9.62 15 12 15 C12 10.38 12 5.76 12 1 C13.32 1 14.64 1 16 1 C16.05382106 3.62527189 16.09358313 6.24944713 16.125 8.875 C16.14175781 9.62136719 16.15851563 10.36773437 16.17578125 11.13671875 C16.1933959 13.09194461 16.10320189 15.04742021 16 17 C14 19 14 19 11.25 19.265625 C10.1775 19.26046875 9.105 19.2553125 8 19.25 C6.39125 19.25773437 6.39125 19.25773437 4.75 19.265625 C2 19 2 19 0 17 C-0.14517744 14.0906442 -0.18630796 11.280054 -0.125 8.375 C-0.11597656 7.57320313 -0.10695313 6.77140625 -0.09765625 5.9453125 C-0.07406223 3.96341477 -0.03819065 1.98167019 0 0 Z " fill="#314348" transform="translate(279,278)"/>
<path d="M0 0 C1.65 0 3.3 0 5 0 C5.05380578 2.79192205 5.09357669 5.5828141 5.125 8.375 C5.15013672 9.56609375 5.15013672 9.56609375 5.17578125 10.78125 C5.19335473 12.85492015 5.10335168 14.92883241 5 17 C3 19 3 19 0.25 19.265625 C-0.8225 19.26046875 -1.895 19.2553125 -3 19.25 C-4.60875 19.25773437 -4.60875 19.25773437 -6.25 19.265625 C-9 19 -9 19 -11 17 C-11.14507695 14.25514407 -11.18652423 11.61519457 -11.125 8.875 C-11.11146484 7.74384766 -11.11146484 7.74384766 -11.09765625 6.58984375 C-11.0740687 4.72642746 -11.03819719 2.86317407 -11 1 C-9.68 1 -8.36 1 -7 1 C-7 5.62 -7 10.24 -7 15 C-4.69 15 -2.38 15 0 15 C0 10.05 0 5.1 0 0 Z " fill="#304247" transform="translate(127,278)"/>
<path d="M0 0 C4.62 0 9.24 0 14 0 C14 1.32 14 2.64 14 4 C10.7 4 7.4 4 4 4 C4 5.32 4 6.64 4 8 C6.97 8 9.94 8 13 8 C13 8.99 13 9.98 13 11 C10.03 11 7.06 11 4 11 C4 12.32 4 13.64 4 15 C7.3 15 10.6 15 14 15 C14 16.32 14 17.64 14 19 C9.38 19 4.76 19 0 19 C0 12.73 0 6.46 0 0 Z " fill="#2D3F45" transform="translate(354,278)"/>
<path d="M0 0 C12.87 0 25.74 0 39 0 C38.67 0.99 38.34 1.98 38 3 C31.34257144 4.21923837 24.75247495 4.14771012 18 4.125 C16.85015625 4.12886719 15.7003125 4.13273437 14.515625 4.13671875 C8.90670414 4.13025686 3.52218947 4.01133121 -2 3 C-1.34 2.67 -0.68 2.34 0 2 C0 1.34 0 0.68 0 0 Z " fill="#A1AB97" transform="translate(226,343)"/>
<path d="M0 0 C1.65 0.33 3.3 0.66 5 1 C5 8.26 5 15.52 5 23 C3.02 23 1.04 23 -1 23 C-1.02887512 19.35418313 -1.04675585 15.70839537 -1.0625 12.0625 C-1.07087891 11.02158203 -1.07925781 9.98066406 -1.08789062 8.90820312 C-1.09272461 7.42416992 -1.09272461 7.42416992 -1.09765625 5.91015625 C-1.10289307 4.99371338 -1.10812988 4.07727051 -1.11352539 3.13305664 C-1 1 -1 1 0 0 Z " fill="#27483F" transform="translate(173,345)"/>
<path d="M0 0 C4.95 0 9.9 0 15 0 C15 1.32 15 2.64 15 4 C13.35 4 11.7 4 10 4 C10 8.95 10 13.9 10 19 C8.35 19 6.7 19 5 19 C5 14.05 5 9.1 5 4 C3.35 4 1.7 4 0 4 C0 2.68 0 1.36 0 0 Z " fill="#344549" transform="translate(391,278)"/>
<path d="M0 0 C4.95 0 9.9 0 15 0 C15 1.32 15 2.64 15 4 C13.35 4 11.7 4 10 4 C10 8.95 10 13.9 10 19 C8.35 19 6.7 19 5 19 C5 14.05 5 9.1 5 4 C3.35 4 1.7 4 0 4 C0 2.68 0 1.36 0 0 Z " fill="#344549" transform="translate(135,278)"/>
<path d="M0 0 C2.97 0 5.94 0 9 0 C9 1.32 9 2.64 9 4 C8.34 4 7.68 4 7 4 C7 7.63 7 11.26 7 15 C7.66 15 8.32 15 9 15 C9 16.32 9 17.64 9 19 C6.03 19 3.06 19 0 19 C0 17.68 0 16.36 0 15 C0.66 15 1.32 15 2 15 C2 11.37 2 7.74 2 4 C1.34 4 0.68 4 0 4 C0 2.68 0 1.36 0 0 Z " fill="#3D4D50" transform="translate(299,278)"/>
<path d="M0 0 C1.86328125 1.51953125 1.86328125 1.51953125 3 3 C-0.38349958 4.96408024 -3.52185868 5.55915407 -7.375 6.125 C-8.47585937 6.29257813 -9.57671875 6.46015625 -10.7109375 6.6328125 C-13.84098023 6.9822472 -16.85391856 7.06653344 -20 7 C-19.67 6.01 -19.34 5.02 -19 4 C-20.65 4 -22.3 4 -24 4 C-23.67 3.01 -23.34 2.02 -23 1 C-21.948125 1.309375 -21.948125 1.309375 -20.875 1.625 C-18.0028597 2.22484674 -18.0028597 2.22484674 -15.4375 1.0625 C-10.40673059 -0.49246509 -5.22284696 -0.70090154 0 0 Z " fill="#E9E6CA" transform="translate(229,157)"/>
<path d="M0 0 C1.08982485 3.26947454 0.98321543 3.80038249 -0.08203125 6.89453125 C-0.34991455 7.67505859 -0.61779785 8.45558594 -0.89379883 9.25976562 C-1.19697021 10.10216797 -1.5001416 10.94457031 -1.8125 11.8125 C-2.27595825 13.12057617 -2.27595825 13.12057617 -2.7487793 14.45507812 C-7.54334088 27.63340004 -13.09818365 41.36555314 -20.625 53.25 C-21.07101563 53.95640625 -21.51703125 54.6628125 -21.9765625 55.390625 C-22.31429687 55.92171875 -22.65203125 56.4528125 -23 57 C-24 55 -24 55 -23.546875 52.94140625 C-23.28390625 52.15636719 -23.0209375 51.37132812 -22.75 50.5625 C-22.49734375 49.78003906 -22.2446875 48.99757813 -21.984375 48.19140625 C-21 46 -21 46 -19.62353516 44.76293945 C-17.36150678 42.30668277 -16.35428258 39.6664303 -15.0390625 36.6015625 C-14.76661713 35.97075775 -14.49417175 35.339953 -14.21347046 34.69003296 C-13.63699716 33.35160231 -13.06396532 32.01168488 -12.49414062 30.67041016 C-11.64146484 28.66374786 -10.77884094 26.66162799 -9.9140625 24.66015625 C-6.40947137 16.51203862 -3.11615432 8.30562063 0 0 Z " fill="#415C51" transform="translate(274,348)"/>
<path d="M0 0 C5.92909506 0.5861719 11.31580266 1.80404381 17 3.5625 C17.77472656 3.79646484 18.54945313 4.03042969 19.34765625 4.27148438 C21.2335214 4.84190038 23.1170209 5.42012803 25 6 C25 5.01 25 4.02 25 3 C25.66 3.33 26.32 3.66 27 4 C26.67 4.99 26.34 5.98 26 7 C26.57669434 7.14187744 27.15338867 7.28375488 27.74755859 7.42993164 C31.39615013 8.35335037 35.00841287 9.39682098 38.625 10.4375 C39.78902344 10.76331055 39.78902344 10.76331055 40.9765625 11.09570312 C46.77051854 12.77051854 46.77051854 12.77051854 49 15 C41.95851802 14.31856626 35.37481123 12.16751338 28.625 10.125 C27.44421875 9.77308594 26.2634375 9.42117188 25.046875 9.05859375 C18.65978938 7.14531309 12.30996653 5.15362083 6 3 C4.824375 2.608125 3.64875 2.21625 2.4375 1.8125 C1.633125 1.544375 0.82875 1.27625 0 1 C0 0.67 0 0.34 0 0 Z " fill="#4D675A" transform="translate(195,391)"/>
<path d="M0 0 C3.3 0 6.6 0 10 0 C10 2.64 10 5.28 10 8 C6.7 8 3.4 8 0 8 C0 5.36 0 2.72 0 0 Z " fill="#FDF6D8" transform="translate(258,231)"/>
<path d="M0 0 C2.31 0 4.62 0 7 0 C7 3.63 7 7.26 7 11 C4.69 11 2.38 11 0 11 C0 7.37 0 3.74 0 0 Z " fill="#F5EFD3" transform="translate(177,282)"/>
<path d="M0 0 C2.31 0 4.62 0 7 0 C7 3.63 7 7.26 7 11 C4.69 11 2.38 11 0 11 C0 7.37 0 3.74 0 0 Z " fill="#F9F2D5" transform="translate(100,282)"/>
<path d="M0 0 C1.99954746 -0.04254356 4.00041636 -0.04080783 6 0 C7 1 7 1 7.09765625 3.28515625 C7.08605469 4.20167969 7.07445312 5.11820312 7.0625 6.0625 C7.05347656 6.98160156 7.04445312 7.90070313 7.03515625 8.84765625 C7.02355469 9.55792969 7.01195312 10.26820313 7 11 C4.69 11 2.38 11 0 11 C0 7.37 0 3.74 0 0 Z " fill="#F3EDD1" transform="translate(198,282)"/>
<path d="M0 0 C2.31 0 4.62 0 7 0 C7 3.63 7 7.26 7 11 C4.69 11 2.38 11 0 11 C0 7.37 0 3.74 0 0 Z " fill="#EEE8CD" transform="translate(263,282)"/>
<path d="M0 0 C2.17258992 3.70393083 2.92139625 7.66456326 3.8125 11.8125 C5.43048417 19.09697869 7.58666092 26.01742317 10.14453125 33.0234375 C11 36 11 36 10 39 C7.31358488 32.54117216 4.96261315 26.03446742 2.83203125 19.37109375 C2.21809711 17.07373432 2.21809711 17.07373432 1 16 C0.34 16.66 -0.32 17.32 -1 18 C-1 14 -1 14 1 12 C0.76033243 9.60652184 0.76033243 9.60652184 0.0625 7 C-1.10176125 2.2035225 -1.10176125 2.2035225 0 0 Z " fill="#556D60" transform="translate(281,367)"/>
<path d="M0 0 C0.99 0.33 1.98 0.66 3 1 C3.94921875 3.72265625 3.94921875 3.72265625 4.6875 7.0625 C5.06455078 8.71958984 5.06455078 8.71958984 5.44921875 10.41015625 C5.63097656 11.26480469 5.81273437 12.11945313 6 13 C3.03 13 0.06 13 -3 13 C-2.01 8.71 -1.02 4.42 0 0 Z " fill="#E3E1C6" transform="translate(216,231)"/>
<path d="M0 0 C1.98 0 3.96 0 6 0 C6 3.63 6 7.26 6 11 C4.02 11 2.04 11 0 11 C0 7.37 0 3.74 0 0 Z " fill="#FDF6D9" transform="translate(158,282)"/>
<path d="M0 0 C0.33 0 0.66 0 1 0 C0.45118943 6.35219042 -0.16511613 12.67873638 -1 19 C-1.66 19 -2.32 19 -3 19 C-3.99 21.97 -4.98 24.94 -6 28 C-7.47816027 25.04367945 -6.43812449 23.26760781 -5.56640625 20.1171875 C-5.24736328 18.95058594 -4.92832031 17.78398437 -4.59960938 16.58203125 C-4.25736328 15.35871094 -3.91511719 14.13539063 -3.5625 12.875 C-3.22412109 11.64394531 -2.88574219 10.41289062 -2.53710938 9.14453125 C-1.69776945 6.09453546 -0.85180406 3.04653393 0 0 Z " fill="#556D60" transform="translate(273,381)"/>
<path d="M0 0 C5.79859195 0.56810529 10.97686594 1.73679735 16.5 3.5625 C17.22703125 3.79646484 17.9540625 4.03042969 18.703125 4.27148438 C20.47080261 4.84132781 22.23570969 5.41975404 24 6 C24 6.33 24 6.66 24 7 C17.53801431 6.48714399 12.06861971 5.22743345 6 3 C4.824375 2.608125 3.64875 2.21625 2.4375 1.8125 C1.633125 1.544375 0.82875 1.27625 0 1 C0 0.67 0 0.34 0 0 Z " fill="#335147" transform="translate(195,391)"/>
<path d="M0 0 C0.66 0 1.32 0 2 0 C5.25601751 8.85776805 5.25601751 8.85776805 4.1875 13.625 C3.795625 14.40875 3.40375 15.1925 3 16 C2.67 16 2.34 16 2 16 C0.61470179 10.54538831 -0.2396943 5.63281599 0 0 Z " fill="#E4E2C6" transform="translate(281,382)"/>
<path d="M0 0 C0.66 0.66 1.32 1.32 2 2 C1.67 2.99 1.34 3.98 1 5 C1.31260159 7.53076813 1.31260159 7.53076813 1.9375 10.1875 C2.13214844 11.08855469 2.32679688 11.98960937 2.52734375 12.91796875 C2.68332031 13.60503906 2.83929688 14.29210937 3 15 C2.01 15.33 1.02 15.66 0 16 C-0.36192504 13.87630763 -0.71431747 11.7509887 -1.0625 9.625 C-1.25972656 8.44164062 -1.45695312 7.25828125 -1.66015625 6.0390625 C-2 3 -2 3 -1 1 C-0.67 0.67 -0.34 0.34 0 0 Z " fill="#EFEBCE" transform="translate(280,365)"/>
<path d="M0 0 C1.98 0 3.96 0 6 0 C6 1.98 6 3.96 6 6 C4.02 6 2.04 6 0 6 C0 4.02 0 2.04 0 0 Z " fill="#E2DFC6" transform="translate(316,282)"/>
<path d="M0 0 C3.37462715 0.54723683 5.08235 1.0549 8 3 C4.17010894 4.80230168 1.21878192 5.19622241 -3 5 C-2.67 4.01 -2.34 3.02 -2 2 C-1.34 2 -0.68 2 0 2 C0 1.34 0 0.68 0 0 Z " fill="#EBE8CC" transform="translate(159,177)"/>
<path d="M0 0 C-1.95216435 1.95216435 -3.53199953 2.84826645 -6 4 C-6 5.32 -6 6.64 -6 8 C-7.9375 7.25 -7.9375 7.25 -10 6 C-10.75 3.875 -10.75 3.875 -11 2 C-7.17679443 0.57741188 -4.08718695 -0.24042276 0 0 Z " fill="#DBDAC0" transform="translate(242,129)"/>
<path d="M0 0 C1.93242285 3.34520258 2.5463853 6.44767482 3.125 10.25 C3.29257812 11.32765625 3.46015625 12.4053125 3.6328125 13.515625 C3.75398438 14.33546875 3.87515625 15.1553125 4 16 C3.34 16.33 2.68 16.66 2 17 C1.67 16.67 1.34 16.34 1 16 C0.34 16.66 -0.32 17.32 -1 18 C-1 14 -1 14 1 12 C0.76033243 9.60652184 0.76033243 9.60652184 0.0625 7 C-1.10176125 2.2035225 -1.10176125 2.2035225 0 0 Z " fill="#879684" transform="translate(281,367)"/>
<path d="M0 0 C1.98 0 3.96 0 6 0 C6 1.65 6 3.3 6 5 C4.02 5 2.04 5 0 5 C0 3.35 0 1.7 0 0 Z " fill="#F4EED2" transform="translate(218,282)"/>
<path d="M0 0 C0.66 0 1.32 0 2 0 C2 2.64 2 5.28 2 8 C1.34 8 0.68 8 0 8 C-0.33 8.99 -0.66 9.98 -1 11 C-2.23825459 7.28523623 -1.70587257 4.81171187 -1 1 C-0.67 0.67 -0.34 0.34 0 0 Z " fill="#CED0B7" transform="translate(275,371)"/>
<path d="M0 0 C1.32 0 2.64 0 4 0 C3.07085074 2.78744777 2.00715142 4.73240419 0.4375 7.1875 C-0.01753906 7.90292969 -0.47257813 8.61835938 -0.94140625 9.35546875 C-1.46541016 10.16951172 -1.46541016 10.16951172 -2 11 C-3 9 -3 9 -2.44140625 6.8359375 C-2.15136719 6.02382813 -1.86132812 5.21171875 -1.5625 4.375 C-1.27503906 3.55773437 -0.98757812 2.74046875 -0.69140625 1.8984375 C-0.46324219 1.27195312 -0.23507813 0.64546875 0 0 Z " fill="#617769" transform="translate(253,394)"/>
<path d="M0 0 C3 3.75 3 3.75 3 6 C1.68 6.33 0.36 6.66 -1 7 C-1.625 5.1875 -1.625 5.1875 -2 3 C-1.34 2.01 -0.68 1.02 0 0 Z " fill="#D3D4BA" transform="translate(282,354)"/>
<path d="M0 0 C0.33 0 0.66 0 1 0 C1.33 2.31 1.66 4.62 2 7 C1.01 7.33 0.02 7.66 -1 8 C-1.33 6.02 -1.66 4.04 -2 2 C-1.34 2 -0.68 2 0 2 C0 1.34 0 0.68 0 0 Z " fill="#E5E2C7" transform="translate(281,373)"/>
<path d="M0 0 C-1.8125 2 -1.8125 2 -4 4 C-4.99 4 -5.98 4 -7 4 C-7.33 3.01 -7.66 2.02 -8 1 C-5.07175348 0.02391783 -3.04386724 -0.08226668 0 0 Z " fill="#AFB7A1" transform="translate(138,182)"/>
<path d="M0 0 C2.02045442 0.60183749 4.02111039 1.27306096 6 2 C6.33 2.66 6.66 3.32 7 4 C5.35 4.33 3.7 4.66 2 5 C1.34 3.35 0.68 1.7 0 0 Z " fill="#C8CBB3" transform="translate(223,369)"/>
</svg>
